<?xml version="1.0" encoding="UTF-8" standalone="no"?>
<svg
   xmlns:dc="http://purl.org/dc/elements/1.1/"
   xmlns:cc="http://creativecommons.org/ns#"
   xmlns:rdf="http://www.w3.org/1999/02/22-rdf-syntax-ns#"
   xmlns:svg="http://www.w3.org/2000/svg"
   xmlns="http://www.w3.org/2000/svg"
   viewBox="0 0 567.78668 567.78668"
   height="567.78668"
   width="567.78668"
   xml:space="preserve"
   id="svg2"
   version="1.1"><metadata
     id="metadata8"><rdf:RDF><cc:Work
         rdf:about=""><dc:format>image/svg+xml</dc:format><dc:type
           rdf:resource="http://purl.org/dc/dcmitype/StillImage" /></cc:Work></rdf:RDF></metadata><defs
     id="defs6" /><g
     transform="matrix(1.3333333,0,0,-1.3333333,0,567.78667)"
     id="g10"><g
       transform="scale(0.1)"
       id="g12"><path
         id="path14"
         style="fill:#284496;fill-opacity:1;fill-rule:evenodd;stroke:none"
         d="M 4258.43,2129.22 C 4258.43,953.262 3305.17,0 2129.23,0 953.281,0 0,953.262 0,2129.22 c 0,1175.94 953.281,2129.22 2129.23,2129.22 1175.94,0 2129.2,-953.28 2129.2,-2129.22" /><path
         id="path16"
         style="fill:none;stroke:#ffffff;stroke-width:34.01580048;stroke-linecap:butt;stroke-linejoin:miter;stroke-miterlimit:4;stroke-dasharray:none;stroke-opacity:1"
         d="m 4100.72,2129.22 c 0,-1088.85 -882.66,-1971.501 -1971.5,-1971.501 -1088.83,0 -1971.501,882.651 -1971.501,1971.501 0,1088.83 882.671,1971.5 1971.501,1971.5 1088.84,0 1971.5,-882.67 1971.5,-1971.5 z" /><path
         id="path18"
         style="fill:#fbc119;fill-opacity:1;fill-rule:nonzero;stroke:none"
         d="m 985.25,3056.69 -208.133,199.16 159.52,166.7 45.629,-43.66 -96.012,-100.33 37.039,-35.44 89.277,93.3 45.45,-43.48 -89.282,-93.31 80.022,-76.57 -63.51,-66.37" /><path
         id="path20"
         style="fill:#fbc119;fill-opacity:1;fill-rule:nonzero;stroke:none"
         d="m 1188.81,3258.67 -169.95,232.23 74.59,54.58 126.91,-173.41 90.37,66.13 43.04,-58.81 -164.96,-120.72" /><path
         id="path22"
         style="fill:#fbc119;fill-opacity:1;fill-rule:nonzero;stroke:none"
         d="m 1334.63,3536.47 -60.4,129.57 82.16,38.42 60.64,-129.28 c 5,-10.7 10.05,-21.3 15.09,-31.89 13.8,-28.73 31.72,-36.79 56.68,-24.75 22.43,10.76 28.44,28.17 18.06,52.54 -5.51,12.76 -11.21,25.53 -17.02,38.15 l -59.65,129.74 82.91,38.77 60.96,-129.58 c 4.55,-9.73 9.02,-19.48 13.34,-29.32 29.59,-66.81 5.09,-129.53 -66.94,-163.48 -8.29,-3.88 -16.91,-7.27 -25.65,-9.98 -69.69,-21.48 -116.68,-0.55 -145.43,60.14 l -14.75,30.95" /><path
         id="path24"
         style="fill:#fbc119;fill-opacity:1;fill-rule:nonzero;stroke:none"
         d="m 1925.8,3819.7 9.65,-12.13 -75.73,-39.59 -4.25,6.75 c -13.55,21.59 -35.49,30.34 -64.24,22.4 -33.59,-9.14 -50.97,-32.5 -50.48,-71.35 0.19,-10.42 1.65,-20.83 4.41,-30.95 13.9,-50.27 46.47,-70.94 87.89,-63.02 28.61,5.44 43.75,22.54 44.63,44.25 l 0.29,6.61 -52.46,-11.22 -12.12,56.68 129.72,27.75 33.31,-155.75 -66.53,-14.22 -4.08,19.11 -2.09,-2.57 c -14.95,-18 -40.11,-33.16 -74.69,-40.9 -81.98,-18.3 -156.53,28.01 -174.87,116.96 -15.59,75.26 18.94,142.85 75.21,169.27 13.99,6.56 28.74,11.58 43.93,14.92 66.74,14.78 121.28,-4 152.5,-43" /><path
         id="path26"
         style="fill:#fbc119;fill-opacity:1;fill-rule:nonzero;stroke:none"
         d="m 2168.48,3757.9 39.5,-1.08 c 3.33,-0.09 6.74,-0.11 10.07,-0.11 28.46,-0.12 42.6,14.8 40.87,39.73 -1.67,23.77 -12.9,33.23 -42.25,34.04 l -46.16,1.27 z m -96.38,-151.47 7.93,288.23 140.13,-3.86 c 13.97,-0.38 27.85,-1.1 41.72,-2.22 58.95,-4.7 90.12,-39.52 88.66,-95.41 -1.56,-59.96 -38.69,-96.47 -95.38,-97.32 -11.58,-0.18 -24.06,-0.09 -40.36,0.36 l -47.98,1.32 -2.58,-93.64 -92.14,2.54" /><path
         id="path28"
         style="fill:#fbc119;fill-opacity:1;fill-rule:nonzero;stroke:none"
         d="m 2391.76,3587.24 61.75,281.32 90.36,-19.84 -46.11,-210.07 109.46,-24.03 -15.63,-71.24 -199.83,43.86" /><path
         id="path30"
         style="fill:#fbc119;fill-opacity:1;fill-rule:nonzero;stroke:none"
         d="m 2784.37,3580.45 58.28,-25.99 13.22,108.34 z m -161.31,-42.68 218.56,218.92 94.75,-42.24 -19.01,-307.88 -89.21,39.77 5.44,42.03 -93.09,41.5 -28.53,-31.74 -88.91,39.64" /><path
         id="path32"
         style="fill:#fbc119;fill-opacity:1;fill-rule:nonzero;stroke:none"
         d="m 3039.88,3582.3 40.45,58.58 196.49,-135.66 -40.12,-58.1 -60.29,41.62 -124.35,-180.11 -75.64,52.22 124.02,179.63 -60.56,41.82" /><path
         id="path34"
         style="fill:#fbc119;fill-opacity:1;fill-rule:nonzero;stroke:none"
         d="m 3137.49,3247.46 41.37,40.73 220.82,6.88 -99,100.21 49.62,48.85 182.22,-185.08 -42.44,-41.78 -216.99,-6.97 102.85,-104.47 -50.27,-49.5 -188.18,191.13" /><path
         id="path36"
         style="fill:#fbc119;fill-opacity:1;fill-rule:nonzero;stroke:none"
         d="m 802.926,988.23 64.187,-17.421 -0.847,-7.52 c -1.946,-19 4.726,-37.769 23.027,-57.277 2.148,-2.332 4.422,-4.512 6.699,-6.614 15.028,-13.718 25.789,-15.328 32.149,-9.597 5.066,4.59 5.086,10.109 -2.11,24.719 -1.269,2.5 -2.902,5.039 -24.414,37.308 -27.394,41.094 -27.324,73.942 -6.359,97.112 5.812,6.4 12.863,11.5 20.812,15.04 31.102,14 68.153,5.01 106.51,-34.67 34.68,-35.841 48.49,-74.681 45.67,-101.9 l -0.32,-2.711 -57.99,9.301 -0.13,9.09 c -0.21,12.199 -4.84,24.41 -18.173,41.531 -3.262,4.219 -6.895,8.109 -10.813,11.719 -11.308,10.39 -21.406,11.04 -26.101,6.35 -3.926,-3.952 -4.532,-9.94 -0.606,-18.19 0.567,-1.23 1.211,-2.379 1.914,-3.469 l 26.563,-40.859 c 28.236,-43.613 26.716,-76.352 0.761,-99.402 -7.335,-6.469 -15.968,-11.301 -25.351,-14.18 -34.504,-10.641 -76.211,3.851 -118.613,54.57 -27.063,32.34 -37.403,61.551 -36.731,94.52 l 0.266,12.55" /><path
         id="path38"
         style="fill:#fbc119;fill-opacity:1;fill-rule:nonzero;stroke:none"
         d="m 1108.18,803.961 25.41,-19.379 c 2.14,-1.621 4.36,-3.242 6.54,-4.82 18.61,-13.543 34.55,-10.922 44.56,5.429 9.52,15.618 6.4,26.829 -12.48,41.231 l -29.69,22.637 z m -130.899,-48.859 134.059,175.988 90.13,-68.711 c 8.98,-6.84 17.75,-13.867 26.34,-21.117 36.55,-30.84 41.41,-67.282 15.48,-101.461 -27.84,-36.641 -68.49,-41.84 -106.04,-15.551 -7.67,5.352 -15.81,11.328 -26.29,19.32 l -30.87,23.512 -43.54,-57.172 -59.269,45.192" /><path
         id="path40"
         style="fill:#fbc119;fill-opacity:1;fill-rule:nonzero;stroke:none"
         d="m 1194.03,596.199 107.25,192.93 162.64,-90.309 -23.1,-41.558 -97.47,54.136 -15.93,-28.687 90.99,-50.531 -23.2,-41.719 -90.99,50.527 -21.49,-38.648 105.69,-58.692 -23.53,-42.347 -170.86,94.898" /><path
         id="path42"
         style="fill:#fbc119;fill-opacity:1;fill-rule:nonzero;stroke:none"
         d="m 1685.73,563.738 2.03,-8.547 -68.97,-5.589 -0.55,7.328 c -1.35,16.34 -7.08,27.64 -18.09,36.558 -3.01,2.5 -6.39,4.614 -9.98,6.313 -3.66,1.719 -7.42,2.988 -11.36,3.789 -25.32,5.191 -50.8,-9.77 -62.57,-47.699 -11.5,-37.012 1.95,-63.731 27.2,-73.102 17.96,-6.66 36.91,-2.48 50.42,11.391 l 5.94,6.09 47.31,-46.86 1.76,-1.82 0.62,-0.629 -8.95,-6.672 c -27.57,-20.508 -53.7,-26.68 -91.45,-20.57 -9.47,1.551 -18.8,3.832 -27.88,6.98 -66.08,22.813 -98.36,86.039 -75.94,150.051 22.83,65.379 88.85,95.82 152.21,74.148 10.29,-3.539 20.18,-8.168 29.47,-13.839 31.85,-19.329 51.42,-45.618 58.78,-77.321" /><path
         id="path44"
         style="fill:#fbc119;fill-opacity:1;fill-rule:nonzero;stroke:none"
         d="m 1679.74,384.25 43.81,217.09 72.77,-14.731 -16.39,-81.281 88.75,66.801 89.71,-18.168 -98.08,-66.82 59.16,-152.192 -81.74,16.563 -34.19,97.457 -40.7,-28.289 -10.33,-51.2 -72.77,14.77" /><path
         id="path46"
         style="fill:#fbc119;fill-opacity:1;fill-rule:nonzero;stroke:none"
         d="m 2106.04,326.852 0.26,59.058 60.58,-0.23 -0.26,-59.051 -60.58,0.223" /><path
         id="path48"
         style="fill:#fbc119;fill-opacity:1;fill-rule:nonzero;stroke:none"
         d="m 2324.28,333.531 -33.38,218.36 184.21,28.308 7.33,-47.859 -110.88,-17.051 5.94,-38.848 103.1,15.84 7.29,-47.679 -103.11,-15.84 12.83,-83.942 -73.33,-11.289" /><path
         id="path50"
         style="fill:#fbc119;fill-opacity:1;fill-rule:nonzero;stroke:none"
         d="m 2565.74,375.32 -63.56,211.649 178.21,53.179 13.68,-45.566 -106.79,-31.883 9.44,-31.461 99.7,29.774 13.75,-45.762 -99.71,-29.77 12.74,-42.402 115.81,34.57 13.94,-46.449 -187.21,-55.879" /><path
         id="path52"
         style="fill:#fbc119;fill-opacity:1;fill-rule:nonzero;stroke:none"
         d="m 2823.73,459.41 -95.71,198.281 66.74,32.36 34.59,-71.66 63.9,30.98 -34.89,72.277 66.68,32.352 96.32,-199.551 -66.68,-32.34 -37.22,77.102 -63.67,-30.852 36.92,-76.468 -66.98,-32.481" /><path
         id="path54"
         style="fill:#fbc119;fill-opacity:1;fill-rule:nonzero;stroke:none"
         d="m 3084.54,743.309 29.9,21.332 c 16.25,11.871 18.9,27.05 9.67,39.109 -10.19,13.422 -24.83,14.051 -44.29,0.211 l -25.51,-18.109 z m -117.18,36.703 92.22,65.527 c 9.22,6.543 18.66,12.77 28.3,18.609 34.83,21.231 68.44,17.012 92.2,-11.328 20.08,-23.82 20.8,-54.23 4.47,-77.32 l -3.92,-5.531 97.41,-41.27 -66.57,-47.301 -82.38,37.563 -17.88,-12.699 45.11,-63.492 -60.93,-42.668 -128.03,179.91" /><path
         id="path56"
         style="fill:#fbc119;fill-opacity:1;fill-rule:nonzero;stroke:none"
         d="m 3323.16,881.949 36.62,36.231 -74.71,38.672 z m -18.07,-130.898 -92.6,220.269 59.54,58.95 218,-96.192 -56.06,-55.469 -28.9,15.231 -58.49,-57.891 14.37,-29.609 -55.86,-55.289" /><path
         id="path58"
         style="fill:#fbc119;fill-opacity:1;fill-rule:nonzero;stroke:none"
         d="m 3522.22,977.199 -176.44,132.931 44.86,59.63 131.77,-99.26 54.35,72.23 44.69,-33.66 -99.23,-131.871" /><path
         id="path60"
         style="fill:#fbc119;fill-opacity:1;fill-rule:nonzero;stroke:none"
         d="m 3477.23,1194.04 -46.79,28.22 99.75,164.84 46.41,-28.01 -30.61,-50.56 143.87,-86.82 -38.4,-63.45 -143.48,86.58 -30.75,-50.8" /><path
         id="path62"
         style="fill:#fbc119;fill-opacity:1;fill-rule:nonzero;stroke:none"
         d="m 3661.17,1411.3 c 39.09,-17.65 69.2,-5.47 79.93,24.42 10.28,28.67 -2.75,55.48 -41.69,71.19 -37.38,15.09 -63.85,4 -75.23,-25.75 -10.47,-27.36 0.85,-53.6 36.99,-69.86 z m -1.94,-77.01 c -8.49,1.72 -16.82,4.3 -24.81,7.68 -66.49,28.25 -89.72,90.83 -60.62,161.56 24.44,59.44 69.22,87.28 125,79.92 11.23,-1.48 22.42,-4.53 33.01,-9.1 64.92,-28.03 88.12,-92.48 60.08,-161.56 -25.47,-62.87 -73.28,-90.45 -132.66,-78.5" /><path
         id="path64"
         style="fill:#fbc119;fill-opacity:1;fill-rule:nonzero;stroke:none"
         d="m 3749.79,1693.08 8.68,35.64 c 4.55,19.59 -3.38,32.79 -18.26,35.86 -16.5,3.46 -28.01,-5.62 -33.69,-28.81 l -7.45,-30.33 z m -112.75,-48.91 26.96,109.79 c 2.68,10.96 5.75,21.83 9.24,32.54 12.48,38.81 40.69,57.59 77.23,51.73 30.81,-4.87 51.25,-27.35 54,-55.48 l 0.64,-6.72 100.78,32.51 -19.46,-79.23 -86.96,-25.51 -5.23,-21.27 75.72,-18.44 -18.23,-72.07 -214.69,52.15" /><path
         id="path66"
         style="fill:#fbc119;fill-opacity:1;fill-rule:nonzero;stroke:none"
         d="m 3914.13,1877.46 -220.25,18.22 15.67,185.82 48.3,-4 -9.44,-111.84 39.18,-3.24 8.77,104 48.1,-3.97 -8.77,-104 84.68,-7.01 -6.24,-73.98" /><path
         id="path68"
         style="fill:#fbc119;fill-opacity:1;fill-rule:nonzero;stroke:none"
         d="m 989.391,1510.42 c 4.754,2.6 9.636,5.06 14.519,7.53 6.12,3.08 12.25,6.16 18.08,9.52 9.27,5.35 15.96,10.42 20.99,15.96 -76.656,176.75 -151.667,394.46 -133.757,671.01 16.828,259.79 129.697,524.17 309.677,725.34 96.51,107.86 204.48,196.64 320.95,263.88 103.38,59.69 215.67,103.65 333.75,130.65 219.34,50.17 449.32,41.09 665.05,-26.22 232.38,-72.51 435.32,-213.76 620.11,-431.66 7.29,6.54 15.51,11.79 23.55,16.92 11.23,7.17 21.93,14.01 28.9,23.62 -220.1,279.67 -513.07,454.12 -847.66,504.64 -113.83,17.19 -216.64,21.66 -305.57,13.3 -212.18,-19.95 -402.72,-77.96 -566.31,-172.41 -103.62,-59.82 -199.7,-136.09 -285.58,-226.7 -193.47,-204.1 -316.602,-446.24 -356.094,-700.23 -43.41,-279.29 8.692,-586.89 139.395,-825.15" /><path
         id="path70"
         style="fill:#fbc119;fill-opacity:1;fill-rule:evenodd;stroke:none"
         d="m 2400.03,2001.63 c -19.55,-35.16 -69.08,-58.86 -110.82,-85.91 -48.01,-31.21 -69.37,-40.98 -111.3,-62.69 81.91,-99.93 269.37,-20.93 222.12,148.6 -1.13,6.08 7.32,0.14 0,0 z m -385.72,456.93 c -31.83,-17.83 -80.83,-44.19 -104.97,-72.27 10.11,-33.91 33.31,-81.22 56.39,-97.05 32.34,37.19 76.69,62.77 130.62,79.05 -7.98,28.09 -59.4,102.97 -82.04,90.27 z m 352.95,-305.74 c -69.43,53.57 -95.42,148.56 -193.16,165.42 -134.85,23.28 -227.48,-86.2 -209.21,-204.86 8.22,-53.35 47.57,-103.87 53.87,-160.34 -120.21,-74.69 -1177.944,-649.66 -1177.944,-649.66 12.032,-20.83 942.184,445.48 1219.534,569.73 77.71,34.81 179.83,69.57 239.92,117.43 133.96,106.69 1069.67,857.25 1193.92,974.29 -0.84,4.11 -893,-647.9 -1126.93,-812.01 z m 78.81,-115.97 c 95.47,-240.65 -213.5,-371.28 -333.73,-206.86 -275.31,-114.43 -1385.684,-672.98 -1426.524,-602.23 -15.175,26.29 81.153,76.18 119.356,97.58 381.598,214.02 781.088,439.71 1150.978,648.68 -8,52.54 -26.31,94.45 -46.14,134.81 -98.85,-47.45 -360.03,-207.18 -392.81,-178.52 19.14,38.55 232.02,162.23 308.05,210.12 25.56,16.13 95.98,49.66 101.42,71.25 12.68,50.18 -84.81,140.88 -76.31,189.28 4.85,27.69 32.29,21.15 50.51,48.45 -35.77,75.3 -85.32,165.07 -132.2,247.01 -10.92,19.06 -51.75,81.45 -28.01,95.16 35.44,20.46 50.33,-35.07 60.27,-50.67 53.5,-84.11 106.5,-172.29 161.57,-250.2 27.92,5.91 44.66,28.94 69.16,26.74 48.35,-4.3 105.09,-127.9 145.27,-147.87 44.89,6 386.54,253.64 432.1,241.43 -18.47,-67.52 -281.86,-228.26 -332.54,-280.11 31.75,-34.23 62.74,-69.25 96.86,-101.04 366.51,237.4 753.79,534.11 1130.36,791.21 30.38,20.75 99.21,76.55 102.57,2.07 1.61,-34.84 -91.1,-98.38 -115.33,-119.5 -52.77,-45.99 -106.78,-82.48 -151.96,-119.69 -298.55,-245.9 -596.87,-503.17 -892.92,-747.1" /><path
         id="path72"
         style="fill:#fbc119;fill-opacity:1;fill-rule:nonzero;stroke:none"
         d="m 2779.96,1018.84 c -0.02,0 -0.01,0 -0.02,-0.01 -126.49,-73.029 -262.79,-122.611 -405.1,-147.35 -137.66,-23.96 -317.13,-19.601 -457.22,11.071 l -6.82,1.5 1.4,6.84 c 28.11,137.389 104.23,257.659 174.99,357.199 115.25,162.07 265.69,299.4 435.03,397.18 183.52,105.95 387.15,166.29 605.28,179.31 45.74,2.74 160.41,6.77 237.03,-14.78 l 6.54,-1.84 -1.56,-6.62 c -55.42,-235.2 -176.96,-444.9 -351.43,-606.39 -73.64,-68.14 -153.76,-127.4 -238.12,-176.11 z m -1638.5,246 c 47.64,-70.99 115.64,-138.66 207.73,-206.7 277.35,-204.96 623.03,-304.378 948.42,-272.769 182.87,17.77 356.7,73.598 516.63,165.93 90.15,52.049 178.04,116.949 261.18,192.879 96,87.65 178.84,194.38 246.24,317.22 55.52,101.24 123.14,264.14 146.32,417.7 41.55,275.34 -4.37,582.25 -119.86,802.51 -5.21,-4.88 -12.25,-9.32 -20,-14.21 -15.11,-9.51 -32.22,-20.28 -34.1,-34.91 -0.82,-6.3 9.42,-30.62 16.2,-46.71 2.22,-5.27 4.4,-10.45 6.37,-15.29 71.9,-177.21 128.02,-451.1 69.92,-688.35 l -1.48,-6.05 -6.2,0.69 c -237.76,26.7 -517.93,-12.72 -731.17,-102.86 -54.96,-23.25 -108.56,-49.9 -159.34,-79.22 -294.46,-170 -512.19,-434.82 -647.16,-787.141 l -2.28,-5.93 -6.13,1.601 c -242.09,63.161 -441.04,187.6 -625.74,391.51 -5.33,-1.89 -10.8,-3.61 -16.27,-5.35 -13.24,-4.18 -25.74,-8.15 -36.09,-14.11 -5.42,-3.14 -9.77,-6.58 -13.19,-10.44" /><path
         id="path74"
         style="fill:#fbc119;fill-opacity:1;fill-rule:nonzero;stroke:none"
         d="m 2363.61,970.09 c -55.59,96.27 -111.16,192.54 -166.74,288.81 33.57,42.56 69.94,82.54 108.76,119.71 10.7,-18.54 21.42,-37.08 32.12,-55.63 -21.08,-17.51 -41.66,-35.51 -61.68,-53.98 13.81,-23.94 27.64,-47.87 41.44,-71.8 21.17,14.71 42.64,29.34 64.39,43.85 10.67,-18.5 21.36,-36.99 32.02,-55.47 -22.71,-12.82 -45.3,-25.53 -67.71,-38.09 31.65,-54.8 63.3,-109.63 94.94,-164.431 -25.61,-5.207 -51.47,-9.528 -77.54,-12.969" /><path
         id="path76"
         style="fill:#fbc119;fill-opacity:1;fill-rule:nonzero;stroke:none"
         d="m 2693.14,1106 c -0.7,-15.54 -6.39,-28.03 -15.06,-37.16 -7.91,-9.51 -18.81,-15.68 -29.16,-20 -47.28,-19.09 -88.96,-2.75 -139.76,85.2 -33.93,58.76 -67.86,117.52 -101.78,176.28 -50.67,87.74 -30.21,144.14 10.95,174.98 50.36,37.23 99.48,22.27 148.34,-60.52 8.46,-14.99 16.94,-29.98 25.41,-44.97 -22.24,-13.07 -44.35,-26.34 -66.27,-39.78 -11.15,19.31 -22.3,38.62 -33.45,57.93 -9.77,16.94 -22.42,30.47 -35.86,21.23 -13.38,-9.29 -7.81,-27.24 1.77,-43.85 44.19,-76.54 88.39,-153.07 132.56,-229.61 9.61,-16.64 21.96,-30.63 37.1,-23.46 14.71,7.02 9.31,24.74 -0.48,41.72 -10.7,18.52 -21.39,37.04 -32.08,55.55 -8.59,-4.64 -17.17,-9.26 -25.78,-13.84 -12,20.78 -23.99,41.57 -36,62.35 30.63,17.74 61.41,35.56 92.21,53.35 41.17,-71.31 82.34,-142.62 123.52,-213.95 -13.25,-7.19 -26.64,-14.13 -40.16,-20.82 -5.34,6.45 -10.69,12.91 -16.02,19.37" /><path
         id="path78"
         style="fill:#fbc119;fill-opacity:1;fill-rule:nonzero;stroke:none"
         d="m 2796.66,1134.6 c -14,24.26 -28,48.52 -42,72.76 -30.48,110.6 -60.91,221.12 -89.24,327.77 -25.89,-12.75 -51.48,-26.21 -76.73,-40.31 -12.39,21.46 -24.78,42.93 -37.17,64.37 49.02,27.01 99.96,50.51 152.45,70.29 11.3,-19.57 22.6,-39.14 33.9,-58.71 26.13,-104.91 55.96,-216.54 87.13,-330.66 25.15,16.58 49.82,33.81 73.96,51.65 11.62,-20.14 23.24,-40.26 34.86,-60.39 -43.41,-35.49 -89.27,-67.81 -137.16,-96.77" /><path
         id="path80"
         style="fill:#fbc119;fill-opacity:1;fill-rule:nonzero;stroke:none"
         d="m 2987.44,1397.12 c 8.2,-14.22 19.03,-24.78 30.94,-13.9 11.87,10.89 7.71,26.17 0.03,39.46 -35.43,61.37 -70.86,122.72 -106.29,184.09 -7.65,13.26 -18.8,24.51 -34.2,19.75 -15.4,-4.86 -11.67,-19.5 -3.47,-33.7 37.65,-65.23 75.32,-130.46 112.99,-195.7 z m 78.71,90.16 c 36.21,-62.7 18.26,-119.36 -16.5,-158.22 -34.67,-38.89 -83.26,-46.56 -134.15,41.61 -33.34,57.73 -66.68,115.48 -100.01,173.21 -50.91,88.15 -19.93,126.33 31.15,136.8 51.11,10.54 109.23,-2.39 145.43,-65.1 24.69,-42.77 49.39,-85.54 74.08,-128.3" /><path
         id="path82"
         style="fill:#fbc119;fill-opacity:1;fill-rule:evenodd;stroke:none"
         d="m 2190.13,2149.71 c 1.22,-17.64 -7.48,-33.18 -23.88,-42.65 -19.49,-11.25 -48.3,-12.11 -65.65,8.04 -7.98,9.27 -11.21,22.53 -8.87,36.39 2.51,14.78 10.77,27.51 22.11,34.05 1.72,1 3.52,1.86 5.13,2.46 25.63,7.93 42.19,1.93 51.57,-4.49 11.17,-7.67 18.68,-20.62 19.59,-33.8 z m -80.66,86.9 c -107.85,-32.71 -68.01,-191.69 32.36,-189.99 125.72,2.13 133.97,224.28 -32.36,189.99" /></g></g></svg>