<?xml version="1.0" standalone="no"?>
<!DOCTYPE svg PUBLIC "-//W3C//DTD SVG 20010904//EN"
 "http://www.w3.org/TR/2001/REC-SVG-20010904/DTD/svg10.dtd">
<svg version="1.0" xmlns="http://www.w3.org/2000/svg"
 width="16.000000pt" height="16.000000pt" viewBox="0 0 16.000000 16.000000"
 preserveAspectRatio="xMidYMid meet">
<metadata>
Created by potrace 1.11, written by Peter Selinger 2001-2013
</metadata>
<g transform="translate(0.000000,16.000000) scale(0.001393,-0.001393)"
fill="#000000" stroke="none">
<path d="M11385 8311 c-9 -16 30 -32 43 -19 9 9 15 9 24 0 15 -15 42 -16 33
-2 -4 6 -10 8 -15 5 -4 -3 -13 2 -20 10 -14 17 -56 20 -65 6z"/>
<path d="M11405 8259 c-10 -15 3 -25 16 -12 7 7 7 13 1 17 -6 3 -14 1 -17 -5z"/>
<path d="M11325 8233 c-5 -10 -7 -26 -6 -37 4 -26 -16 -36 -71 -36 -36 0 -50
-5 -57 -19 -6 -10 -24 -21 -41 -24 -17 -4 -30 -13 -30 -22 0 -8 -13 -27 -30
-41 -16 -15 -27 -30 -25 -34 3 -4 -2 -13 -10 -20 -12 -10 -16 -9 -21 3 -4 12
-37 24 -71 27 -16 1 -10 -36 8 -53 16 -15 20 -16 25 -3 3 8 12 12 20 9 11 -4
12 -8 3 -20 -16 -19 5 -42 25 -28 7 6 43 30 79 54 36 25 68 53 70 62 3 10 18
21 33 24 16 3 36 10 44 16 8 5 24 13 35 18 38 17 77 67 70 90 -3 12 -11 21
-16 21 -5 0 -9 7 -9 15 0 21 -16 19 -25 -2z"/>
<path d="M11023 8085 c-17 -12 -16 -14 9 -20 31 -8 62 0 54 14 -10 16 -45 19
-63 6z"/>
<path d="M10911 8077 c-14 -17 9 -41 34 -35 23 5 23 19 -1 35 -18 11 -23 12
-33 0z"/>
<path d="M10793 8058 c-13 -6 -23 -17 -23 -23 0 -20 27 -26 40 -9 7 8 19 14
27 14 18 0 11 24 -8 27 -8 1 -24 -3 -36 -9z"/>
<path d="M10865 8040 c3 -5 8 -10 11 -10 2 0 4 5 4 10 0 6 -5 10 -11 10 -5 0
-7 -4 -4 -10z"/>
<path d="M10710 8030 c0 -5 4 -10 9 -10 6 0 13 5 16 10 3 6 -1 10 -9 10 -9 0
-16 -4 -16 -10z"/>
<path d="M10800 7980 c0 -5 5 -10 11 -10 5 0 7 5 4 10 -3 6 -8 10 -11 10 -2 0
-4 -4 -4 -10z"/>
<path d="M10720 7964 c0 -8 5 -12 10 -9 6 4 8 11 5 16 -9 14 -15 11 -15 -7z"/>
<path d="M10730 7920 c0 -10 -7 -23 -16 -28 -9 -5 -14 -18 -12 -33 5 -35 -79
-77 -167 -83 -36 -2 -72 -9 -79 -15 -10 -9 -21 -7 -44 6 -25 14 -32 15 -46 4
-23 -19 -3 -40 35 -36 16 2 29 -1 29 -7 0 -7 -21 -9 -59 -5 -71 6 -96 -5 -66
-27 11 -9 26 -16 33 -16 13 0 16 -13 5 -23 -3 -4 -12 -2 -18 3 -7 5 -32 9 -56
7 -36 -2 -46 -8 -57 -29 -7 -15 -21 -30 -32 -33 -11 -4 -20 -15 -20 -26 0 -10
-7 -19 -15 -19 -17 0 -20 16 -5 25 17 11 11 25 -16 37 -31 14 -49 -4 -32 -35
14 -26 4 -31 -24 -13 -23 15 -25 15 -46 -13 -12 -16 -23 -33 -24 -38 -6 -18
43 -66 74 -72 52 -11 41 -33 -17 -36 -27 -1 -51 -7 -53 -14 -2 -6 -14 -8 -27
-5 -12 3 -26 1 -29 -5 -4 -7 1 -11 13 -11 12 0 21 -4 21 -10 0 -14 -43 -13
-57 1 -9 9 -18 8 -37 -5 -14 -9 -37 -16 -51 -16 -15 0 -35 -4 -45 -10 -14 -7
-23 -6 -35 6 -13 13 -21 14 -38 6 -12 -5 -31 -13 -41 -16 -28 -9 -10 -21 37
-23 33 -1 64 -11 95 -29 2 -1 -3 -15 -11 -31 -8 -15 -12 -34 -10 -40 3 -8 -5
-13 -21 -13 -14 0 -26 5 -26 10 0 6 4 10 10 10 21 0 -14 50 -43 60 -35 12 -72
-6 -87 -43 -5 -12 -9 -16 -9 -9 -1 7 -16 12 -40 12 -52 0 -71 8 -71 31 0 15 7
19 38 19 26 0 45 7 56 19 21 23 14 41 -17 41 -20 1 -18 4 13 29 19 16 32 32
29 35 -10 10 -94 -9 -95 -22 -1 -6 -2 -19 -3 -27 0 -8 -8 -15 -16 -15 -8 0
-20 -9 -27 -20 -7 -11 -18 -20 -24 -20 -6 0 -17 -7 -24 -15 -7 -8 -16 -12 -21
-9 -13 8 -49 -15 -49 -31 0 -17 -16 -20 -25 -5 -10 16 -41 11 -60 -10 -15 -16
-16 -22 -5 -35 11 -13 9 -20 -9 -39 -27 -28 -71 -40 -71 -19 0 7 7 16 15 19
11 5 12 11 5 24 -7 13 -7 21 0 25 19 12 11 45 -10 45 -11 0 -20 -6 -20 -13 0
-26 -20 -35 -50 -24 -34 13 -80 -3 -80 -28 0 -19 -9 -19 -34 0 -18 13 -22 13
-40 -4 -12 -10 -30 -22 -42 -25 -32 -10 -63 -96 -34 -96 6 0 0 -16 -12 -35
-13 -19 -31 -35 -41 -35 -11 0 -21 -9 -24 -20 -6 -21 -33 -28 -33 -9 0 6 9 23
20 39 18 26 18 29 3 41 -9 8 -17 14 -17 14 -1 0 -17 -10 -36 -22 -23 -14 -41
-19 -49 -13 -16 9 -70 5 -83 -8 -4 -4 -9 -20 -10 -34 -2 -24 -4 -25 -22 -12
-17 11 -21 11 -32 -4 -10 -14 -17 -15 -31 -6 -14 9 -24 8 -45 -4 -16 -9 -28
-22 -28 -29 0 -7 -11 -15 -25 -19 -14 -3 -25 -11 -25 -17 0 -6 3 -7 6 -4 10
10 44 -12 44 -27 0 -21 -58 -66 -76 -59 -11 4 -12 8 -4 13 6 4 9 17 5 32 -6
24 -11 26 -68 26 -67 0 -97 -10 -97 -33 0 -8 -4 -15 -9 -15 -15 0 -22 -32 -11
-46 14 -16 -35 -75 -55 -68 -8 3 -23 -4 -34 -15 -22 -22 -32 -26 -30 -13 6 39
-2 52 -34 52 -24 0 -35 -6 -42 -22 -6 -13 -19 -24 -30 -24 -11 -1 -26 -2 -32
-3 -7 -1 -13 -8 -13 -17 0 -12 -6 -15 -21 -11 -15 4 -23 -1 -31 -18 -10 -23
-13 -23 -38 -10 -44 23 -140 4 -140 -27 0 -16 -3 -18 -13 -10 -20 17 -57 3
-59 -22 0 -11 -2 -28 -2 -36 -1 -10 -10 -14 -26 -12 -41 6 -114 8 -127 4 -7
-2 -13 -13 -13 -23 0 -13 7 -19 24 -19 13 0 26 -7 30 -15 3 -8 20 -21 38 -29
l33 -13 -45 -1 c-82 -1 -95 -4 -112 -19 -14 -13 -19 -13 -42 2 -15 10 -30 13
-38 9 -7 -5 -16 -9 -20 -10 -21 -4 -21 -6 0 -14 24 -10 30 -30 8 -30 -8 0 -16
-7 -20 -15 -3 -8 -13 -15 -22 -15 -12 0 -15 6 -10 24 7 29 -12 47 -51 48 -34
0 -126 -40 -118 -52 7 -12 -23 -40 -44 -40 -9 0 -22 5 -29 12 -16 16 -81 -20
-88 -49 -3 -12 -14 -29 -25 -39 -15 -14 -23 -15 -47 -5 -19 8 -36 9 -54 2 -14
-5 -29 -6 -34 -1 -5 4 -20 11 -33 15 -19 6 -23 4 -18 -8 8 -22 -16 -39 -45
-32 -29 8 -83 -15 -83 -35 0 -8 -10 -16 -22 -18 -19 -3 -23 -10 -23 -42 0 -34
-4 -39 -31 -49 -44 -15 -49 -14 -49 9 0 32 -29 60 -54 50 -13 -4 -33 -1 -54 9
-32 15 -35 15 -48 -4 -11 -15 -18 -17 -32 -9 -12 8 -25 7 -47 -2 -16 -6 -36
-9 -43 -6 -8 3 -18 -1 -22 -8 -5 -8 -13 -9 -21 -4 -22 13 -51 12 -94 -3 -37
-14 -177 -26 -285 -25 -142 2 -258 1 -275 -2 -11 -2 -31 1 -45 5 -39 13 -143
18 -162 8 -11 -6 -21 -5 -30 4 -7 6 -38 13 -68 14 -30 2 -56 7 -58 13 -2 6
-20 7 -43 4 -30 -5 -44 -2 -59 11 -10 10 -32 18 -48 20 -16 1 -55 15 -87 30
-31 16 -80 30 -108 33 -29 2 -58 9 -64 14 -15 12 -69 13 -103 1 -43 -15 -60
-9 -78 27 -12 25 -24 35 -40 35 -12 0 -26 5 -30 12 -4 6 -28 14 -54 18 -26 4
-53 13 -59 21 -6 8 -21 14 -33 14 -12 0 -27 5 -33 11 -10 10 -35 16 -98 23
-16 1 -52 15 -78 29 -27 15 -65 29 -85 33 -21 4 -40 11 -43 17 -4 5 -17 11
-30 12 -14 2 -73 21 -133 44 -60 22 -120 39 -132 37 -15 -3 -28 2 -36 13 -13
18 -55 37 -72 32 -13 -3 -68 20 -84 36 -7 7 -23 14 -35 15 -41 2 -44 3 -59 16
-8 6 -17 10 -19 8 -2 -2 -17 -7 -34 -10 -16 -3 -40 -8 -52 -12 -19 -5 -23 -2
-23 14 0 26 -19 40 -48 36 -13 -2 -33 1 -45 8 -23 13 -41 17 -97 22 -19 2 -48
9 -65 15 -16 7 -37 12 -45 12 -22 -2 -57 -2 -140 -2 -60 0 -79 -3 -94 -18 -19
-19 -19 -19 -48 2 -15 12 -47 22 -71 24 -23 2 -67 5 -97 7 -35 3 -66 -1 -87
-11 -17 -8 -41 -12 -52 -8 -10 3 -22 1 -26 -5 -3 -5 1 -10 9 -10 27 0 25 -15
-2 -16 -15 -1 -36 -3 -47 -5 -14 -3 -19 1 -17 12 3 23 -54 29 -120 12 -28 -8
-56 -12 -62 -10 -6 3 -19 -3 -29 -11 -17 -15 -65 -25 -170 -37 -27 -2 -52 -7
-55 -9 -4 -2 -18 2 -32 9 -21 11 -29 11 -52 -1 -15 -8 -34 -24 -42 -35 -13
-18 -21 -21 -53 -15 -62 12 -87 12 -108 2 -11 -5 -31 -11 -44 -12 -13 -2 -32
-10 -42 -20 -13 -12 -28 -15 -50 -10 -18 3 -38 1 -44 -4 -7 -6 -23 -13 -36
-15 -12 -2 -32 -13 -43 -24 -36 -33 -79 -48 -122 -44 -28 3 -44 0 -53 -11 -8
-9 -17 -16 -22 -16 -4 0 -25 -11 -45 -25 -20 -14 -33 -25 -28 -25 4 0 4 -4 -2
-10 -5 -5 -31 -12 -58 -14 -26 -3 -54 -10 -62 -17 -7 -6 -18 -8 -23 -5 -16 10
-119 -37 -132 -60 -6 -12 -21 -21 -34 -21 -28 0 -115 -51 -115 -67 0 -18 -42
-55 -66 -59 -11 -1 -33 -12 -49 -23 -17 -12 -45 -24 -64 -28 -21 -4 -49 -22
-73 -46 -22 -22 -43 -40 -48 -40 -4 0 -21 -15 -38 -34 -16 -19 -39 -37 -51
-41 -12 -3 -45 -34 -73 -68 -52 -63 -89 -97 -105 -97 -12 0 -33 -45 -33 -70 0
-11 -4 -20 -10 -20 -12 0 -40 -53 -40 -77 0 -22 34 -45 55 -37 8 3 15 10 15
14 0 4 11 18 24 31 13 13 25 33 27 44 2 11 18 27 34 35 17 8 40 24 52 35 40
37 52 45 66 45 8 0 30 18 50 40 19 22 43 40 52 40 16 0 87 47 93 63 2 4 8 7
14 7 6 0 26 11 44 25 18 14 42 25 53 25 11 0 23 5 26 10 4 6 21 16 39 24 18 7
52 26 77 42 24 16 54 29 67 31 28 2 143 63 159 83 7 9 24 14 48 11 22 -1 43 3
53 12 17 14 37 21 102 37 19 4 51 14 70 21 65 23 75 26 89 28 5 0 23 13 40 27
23 19 38 24 57 20 14 -4 33 -1 43 6 11 8 43 13 75 12 57 -1 86 13 48 23 -11 3
-23 11 -26 18 -8 22 21 25 44 5 16 -14 32 -18 63 -14 23 3 62 7 87 9 92 8 126
12 160 21 19 4 40 8 45 9 6 0 9 6 8 12 -3 14 52 37 71 30 7 -3 30 -2 49 3 21
4 52 3 76 -3 34 -9 46 -8 69 6 17 9 33 12 38 8 5 -5 27 -11 50 -15 23 -3 45
-6 50 -7 20 -5 86 21 116 46 23 19 38 25 56 20 13 -3 30 -1 36 5 9 7 19 4 36
-10 13 -11 29 -20 36 -20 8 0 13 -9 11 -22 -1 -15 3 -23 13 -23 8 0 15 9 15
20 0 16 8 21 38 23 24 2 43 -2 53 -13 9 -9 23 -14 31 -11 8 3 23 6 33 6 14 0
18 6 14 24 -6 36 22 60 60 51 17 -4 42 -8 55 -10 14 -1 27 -7 29 -13 4 -12
-45 -28 -55 -18 -7 7 -33 -13 -33 -25 0 -5 9 -9 21 -9 12 0 23 -8 26 -20 4
-15 14 -20 37 -20 17 0 37 -4 45 -9 32 -21 97 34 78 66 -3 5 -2 15 3 22 11 19
41 6 34 -14 -7 -18 26 -21 44 -3 20 20 26 -1 7 -22 -18 -20 -18 -20 24 -20 27
0 44 -5 47 -15 4 -8 15 -13 27 -11 25 4 55 -9 77 -35 16 -19 55 -26 82 -15 21
10 38 0 38 -22 1 -26 27 -54 47 -50 18 3 21 22 3 24 -5 1 -14 2 -20 3 -14 1
-13 21 3 54 13 30 32 31 32 2 0 -12 9 -21 25 -25 17 -4 21 -8 12 -14 -18 -11
-15 -41 8 -61 19 -18 20 -17 20 4 0 14 9 25 26 31 14 6 32 17 40 25 18 18 55
20 72 3 15 -15 16 -48 1 -48 -6 0 -9 -5 -7 -11 2 -6 6 -9 8 -8 3 1 15 -3 28
-10 26 -14 28 -6 13 47 -8 27 -7 32 6 32 9 0 24 7 34 16 10 9 23 13 30 8 9 -5
7 -11 -7 -21 -15 -11 -16 -15 -5 -22 7 -5 22 -6 32 -4 16 5 19 0 19 -35 0 -39
2 -41 33 -44 22 -2 35 -10 42 -25 7 -17 17 -21 45 -20 24 1 34 -2 32 -11 -4
-24 25 -23 82 2 39 17 66 23 86 19 27 -5 43 -23 21 -23 -17 0 -22 -38 -9 -60
21 -35 97 -68 133 -58 54 15 75 17 80 7 4 -5 15 -9 26 -9 10 0 18 -3 18 -7 -5
-33 39 -46 79 -23 32 18 104 39 118 33 8 -3 14 -15 14 -27 0 -19 5 -21 62 -21
37 0 62 -4 61 -10 -1 -6 -4 -22 -7 -35 -6 -22 0 -28 52 -56 l58 -31 22 24 c12
14 22 29 22 34 0 5 9 9 20 9 11 0 20 -6 20 -14 0 -8 7 -16 15 -20 11 -4 14
-13 9 -32 -6 -23 -4 -25 13 -20 11 3 34 -1 52 -10 31 -15 34 -15 54 3 35 32
85 21 100 -21 2 -6 12 -6 23 -1 10 4 27 9 38 10 10 1 23 9 28 19 6 11 20 16
42 14 19 -1 47 7 68 20 42 26 71 21 62 -13 -5 -22 17 -55 37 -55 6 0 6 -7 -1
-19 -15 -28 -13 -31 20 -31 19 0 33 7 40 20 12 23 40 27 40 6 0 -23 52 -54 84
-50 15 1 35 12 43 24 8 12 26 25 39 30 23 9 34 40 14 40 -16 0 12 38 31 43 28
7 30 -3 8 -35 l-21 -29 27 -21 c19 -15 23 -24 16 -31 -17 -17 -13 -37 7 -37 9
0 36 10 59 22 40 21 43 25 37 55 -4 22 -2 33 5 33 7 0 10 -4 7 -8 -3 -5 4 -18
14 -30 11 -12 20 -27 20 -34 1 -26 26 -47 48 -41 23 6 28 18 12 28 -5 3 -9 21
-7 40 2 34 2 34 23 14 11 -10 28 -19 37 -19 10 0 17 -8 17 -20 0 -13 7 -20 19
-20 11 0 22 -4 25 -9 10 -15 56 0 56 19 0 11 10 20 24 24 14 3 31 12 38 20 19
19 75 9 81 -15 3 -10 1 -22 -4 -25 -20 -12 -7 -23 16 -12 14 6 25 18 25 26 0
10 6 12 23 7 12 -4 40 -8 62 -9 22 -2 43 -4 48 -6 18 -7 35 -5 77 10 37 13 49
24 71 65 15 28 25 53 23 56 -2 4 3 12 11 19 15 13 15 13 29 -34 6 -18 65 -31
79 -17 7 7 7 14 -1 23 -8 10 -4 19 15 38 l25 24 20 -23 c20 -26 69 -32 118
-15 14 4 32 8 40 9 24 1 40 15 33 30 -3 9 1 15 10 15 8 0 17 -5 19 -12 5 -15
37 -19 60 -7 13 7 17 17 13 29 -6 18 -2 19 44 13 57 -6 82 6 74 37 -4 15 0 20
17 20 12 0 28 -7 37 -15 15 -16 29 -14 83 8 14 5 33 12 42 13 9 2 36 10 60 19
24 8 53 15 64 15 12 0 27 7 34 15 7 8 21 15 32 15 10 0 38 10 61 22 23 12 47
22 52 23 36 4 65 26 65 50 0 26 1 26 53 20 45 -5 60 -2 112 25 33 16 70 30 81
30 12 0 25 7 28 15 7 20 69 46 116 50 38 3 110 40 110 57 0 5 8 8 18 6 24 -4
42 10 42 33 0 10 3 19 8 20 4 1 33 3 64 4 31 2 70 11 87 19 16 9 37 16 46 16
18 0 64 49 65 69 0 9 6 11 18 6 41 -18 58 -16 85 9 15 14 27 34 27 46 0 21 24
28 35 10 11 -17 35 -11 35 10 0 17 4 18 25 10 21 -8 29 -6 42 10 10 11 23 20
30 20 7 0 13 4 13 10 0 5 6 7 14 4 15 -6 88 30 107 52 6 8 19 12 28 9 9 -2 34
7 56 20 22 14 58 34 81 45 23 11 52 37 67 59 24 35 29 39 54 32 29 -8 112 17
143 43 8 7 41 27 73 45 31 18 57 36 57 40 0 4 9 17 20 29 16 17 25 20 39 13
19 -11 61 -4 61 9 0 4 9 10 21 13 11 3 23 15 26 26 3 12 14 21 24 21 10 0 25
12 34 28 19 30 74 62 109 62 13 0 26 7 30 15 3 8 12 15 21 15 22 0 65 30 65
45 0 8 17 19 37 26 20 6 44 19 53 29 8 9 42 27 75 40 68 26 93 45 106 78 5 12
17 22 27 22 10 0 26 14 35 30 12 19 26 30 41 30 12 0 33 11 45 24 13 14 38 26
55 28 28 3 31 7 32 35 0 37 8 48 32 48 42 1 115 32 132 55 17 24 17 27 2 45
-10 11 -23 20 -29 21 -34 3 -36 4 -24 17 14 18 4 27 -31 27 -21 0 -28 -5 -28
-20z m-82 -188 c2 -7 -3 -12 -12 -12 -9 0 -16 7 -16 16 0 17 22 14 28 -4z
m-444 -247 c-13 -21 -19 -23 -31 -13 -13 10 -12 14 3 25 32 23 47 16 28 -12z
m-84 5 c0 -5 -2 -10 -4 -10 -3 0 -8 5 -11 10 -3 6 -1 10 4 10 6 0 11 -4 11
-10z m-688 -277 c6 -13 17 -23 25 -23 19 0 16 -18 -4 -22 -25 -5 -61 14 -66
34 -3 9 2 27 11 39 12 17 17 19 20 8 2 -8 8 -24 14 -36z m288 -13 c-19 -13
-30 -13 -30 0 0 6 10 10 23 10 18 0 19 -2 7 -10z m-571 -19 c7 -5 10 -14 6
-21 -5 -8 -12 -7 -24 4 -10 9 -21 13 -24 9 -4 -3 -7 -1 -7 5 0 14 29 16 49 3z
m420 -47 c-15 -18 -49 -18 -49 -1 0 20 8 25 35 19 20 -3 23 -7 14 -18z m-494
-35 c4 -11 18 -24 31 -29 17 -7 24 -17 24 -35 0 -14 -4 -25 -10 -25 -5 0 -10
7 -10 15 0 8 -6 15 -12 15 -21 1 -81 57 -74 69 12 18 44 12 51 -10z m-415
-199 c24 -22 49 -40 57 -40 20 0 15 -18 -7 -25 -15 -5 -26 0 -39 17 l-19 23
-51 -19 c-54 -19 -81 -15 -60 10 7 8 17 13 23 11 24 -9 46 13 40 38 -9 35 6
31 56 -15z m-96 -89 c10 -16 -6 -71 -20 -71 -8 0 -14 -4 -14 -10 0 -5 -8 -10
-17 -10 -15 0 -14 2 3 15 10 8 15 15 10 15 -5 0 -1 9 9 20 9 10 15 26 12 35
-7 16 8 21 17 6z m-81 -36 c1 -5 -6 -11 -15 -13 -11 -2 -18 3 -18 13 0 17 30
18 33 0z m199 -65 c20 -30 24 -41 15 -49 -16 -12 -50 -8 -55 7 -2 7 -12 12
-22 12 -13 0 -19 10 -22 38 -3 20 -3 43 0 49 7 19 52 -12 84 -57z m305 44 c-2
-2 -12 -1 -22 3 -18 6 -18 7 1 13 17 7 33 -5 21 -16z m-672 -34 c3 -5 -1 -10
-9 -10 -8 0 -18 5 -21 10 -3 6 1 10 9 10 8 0 18 -4 21 -10z m283 -118 c3 -16
-4 -25 -24 -32 -36 -14 -86 -9 -92 9 -3 9 2 11 18 6 24 -7 71 1 69 13 -1 4 -1
13 0 20 2 21 26 8 29 -16z m-258 -102 c0 -18 -3 -19 -20 -10 -11 6 -20 15 -20
20 0 6 9 10 20 10 13 0 20 -7 20 -20z m-593 -42 c3 -20 -1 -28 -12 -28 -8 0
-15 -7 -15 -15 0 -10 -10 -15 -29 -15 -16 0 -36 -3 -45 -6 -11 -4 -16 0 -16
14 0 12 -5 24 -10 27 -17 11 0 25 29 25 16 0 34 7 41 15 21 25 53 14 57 -17z
m-1444 -395 c-8 -22 -23 -33 -45 -33 -25 0 -23 21 2 27 11 3 20 9 20 14 0 5 7
9 15 9 9 0 12 -6 8 -17z m-1380 -63 c-4 -4 -18 -11 -30 -15 -27 -8 -31 9 -6
23 19 11 49 4 36 -8z m1667 0 c9 -18 5 -27 -33 -66 -29 -30 -49 -43 -60 -38
-9 3 -13 12 -10 20 3 7 -2 21 -11 29 -9 9 -16 21 -16 26 0 12 27 11 35 -1 10
-16 35 8 35 31 0 27 46 25 60 -1z m-1623 4 c-3 -3 -12 -4 -19 -1 -8 3 -5 6 6
6 11 1 17 -2 13 -5z m1351 -47 c15 -8 39 -12 55 -11 15 2 27 1 27 -1 0 -11
-36 -45 -46 -45 -7 0 -14 -5 -16 -11 -2 -6 -29 -12 -61 -13 -47 -2 -57 1 -55
13 2 10 15 15 38 15 28 1 35 5 35 21 0 16 -6 20 -27 18 -31 -2 -38 13 -10 20
29 8 32 7 60 -6z m-365 -99 c-18 -20 -29 -17 -20 5 3 7 12 14 21 14 15 0 14
-2 -1 -19z"/>
<path d="M10640 7896 c0 -18 37 -28 44 -11 6 17 -3 25 -26 25 -10 0 -18 -6
-18 -14z"/>
<path d="M9908 7674 c-4 -3 -12 -7 -20 -8 -42 -9 -68 -19 -68 -28 0 -6 8 -7
18 -3 9 4 24 9 32 10 34 7 60 18 60 26 0 10 -14 12 -22 3z"/>
<path d="M9782 7604 c-28 -19 -20 -34 17 -34 16 0 34 -7 41 -15 22 -27 61 -11
43 18 -4 6 -6 20 -5 30 3 14 -4 17 -35 17 -21 0 -49 -7 -61 -16z"/>
<path d="M9660 7506 c-14 -6 -32 -15 -40 -21 -17 -10 -33 -13 -110 -16 -30 -2
-61 -8 -68 -15 -7 -7 -19 -11 -27 -8 -22 9 -18 -13 5 -36 18 -18 19 -21 4 -27
-9 -3 -31 -1 -48 6 -36 15 -77 15 -86 0 -4 -5 -6 -22 -5 -37 1 -22 6 -27 28
-27 14 -1 29 -4 33 -8 13 -13 35 -7 68 18 18 14 41 25 51 25 20 0 44 27 45 51
0 27 74 48 96 27 19 -20 104 23 104 52 0 23 -19 30 -50 16z"/>
<path d="M9845 7489 c-16 -5 -50 -8 -75 -7 -36 2 -44 0 -41 -12 2 -8 5 -24 6
-35 2 -25 28 -31 45 -10 16 19 27 19 63 0 20 -10 39 -12 65 -7 43 9 53 38 12
35 -14 -1 -19 0 -12 3 14 7 17 34 3 34 -5 0 -15 2 -23 4 -7 2 -26 0 -43 -5z"/>
<path d="M9985 7459 c-10 -15 1 -23 20 -15 9 3 13 10 10 16 -8 13 -22 13 -30
-1z"/>
<path d="M8111 6771 c-10 -7 -10 -10 -1 -16 6 -4 16 -3 22 3 13 13 -4 23 -21
13z"/>
<path d="M3210 6440 c-12 -8 -12 -10 2 -15 19 -7 38 1 38 16 0 12 -21 11 -40
-1z"/>
<path d="M3657 6323 c-15 -15 -5 -23 27 -23 41 0 56 15 23 24 -29 8 -42 7 -50
-1z"/>
<path d="M3840 6325 c-1 -5 -2 -14 -1 -19 1 -4 -4 -14 -10 -22 -9 -11 -8 -14
4 -14 21 0 25 10 16 40 -4 14 -8 21 -9 15z"/>
<path d="M4975 5920 c-3 -5 -1 -10 4 -10 6 0 11 5 11 10 0 6 -2 10 -4 10 -3 0
-8 -4 -11 -10z"/>
<path d="M6314 5808 c-4 -5 0 -14 7 -19 20 -13 29 -11 29 5 0 18 -27 29 -36
14z"/>
<path d="M8483 5609 c-113 -19 -218 -76 -275 -150 -69 -91 -97 -188 -99 -341
l-2 -108 -26 -1 c-14 0 -61 0 -103 0 -74 0 -78 -1 -79 -22 0 -12 -1 -85 -1
-162 l-1 -140 79 -2 c43 -1 91 -2 106 -2 l27 -1 -1 -457 c0 -252 1 -477 1
-500 l1 -42 193 2 192 2 1 493 c1 271 4 495 6 498 3 2 62 5 132 5 69 1 127 4
127 8 1 3 2 75 3 159 1 129 -1 153 -14 157 -8 2 -66 4 -128 3 -62 0 -115 2
-118 5 -4 4 -6 40 -6 82 1 89 27 146 76 167 49 21 136 16 180 -10 20 -12 38
-22 40 -22 1 0 3 76 3 169 1 119 -2 173 -10 179 -37 30 -204 47 -304 31z"/>
<path d="M10536 5353 c-3 -4 -6 -82 -6 -175 l0 -168 -115 0 c-95 0 -115 -3
-116 -15 0 -8 -1 -78 -1 -155 0 -77 1 -143 1 -148 1 -4 53 -7 116 -7 l115 0 0
-255 c1 -336 4 -393 29 -471 58 -182 207 -286 421 -295 93 -3 213 15 234 36 7
7 12 271 7 336 -1 7 -22 1 -52 -14 -86 -40 -183 -21 -226 45 -16 24 -18 60
-21 323 l-3 295 133 0 133 0 3 163 3 162 -136 0 -135 0 0 175 0 175 -189 -1
c-104 0 -192 -3 -195 -6z"/>
<path d="M6480 5028 c-30 -4 -89 -25 -130 -46 -41 -20 -78 -38 -81 -40 -4 -2
-6 5 -6 15 0 54 10 51 -180 51 -98 0 -186 -2 -195 -4 -16 -5 -17 -50 -17 -664
l1 -659 194 0 c107 0 195 3 195 7 1 4 2 198 3 432 2 460 2 456 58 506 76 70
196 69 246 -3 40 -58 42 -82 43 -518 l0 -423 199 -1 198 0 0 429 c0 472 0 472
64 525 89 75 215 49 261 -54 20 -44 21 -64 21 -471 l1 -425 195 0 195 0 2 460
c0 253 -3 485 -8 515 -41 235 -198 372 -429 373 -41 0 -88 -2 -105 -6 -16 -3
-42 -8 -56 -11 -62 -13 -202 -94 -213 -123 -5 -12 -14 -8 -45 20 -107 96 -257
139 -411 115z"/>
<path d="M9359 5029 c-270 -37 -458 -237 -504 -536 -49 -323 85 -620 329 -733
98 -46 152 -58 258 -58 95 0 180 23 251 68 l48 30 -5 -40 c-11 -94 -83 -184
-171 -217 -22 -8 -83 -17 -136 -20 -161 -9 -282 27 -409 123 l-65 50 0 -201 0
-200 75 -37 c111 -55 233 -77 400 -74 183 4 245 18 377 83 129 64 234 178 282
309 44 115 46 165 46 839 l0 590 -198 2 -197 1 0 -34 c0 -34 -12 -45 -26 -23
-9 16 -122 66 -164 74 -57 10 -131 12 -191 4z m275 -359 c25 -11 59 -35 75
-53 l31 -31 0 -217 0 -217 -26 -32 c-68 -80 -212 -105 -319 -54 -50 23 -94 71
-124 134 -23 49 -26 67 -26 165 0 105 2 114 33 177 42 85 97 130 187 152 40 9
126 -2 169 -24z"/>
</g>
</svg>
