<?xml version="1.0" standalone="no"?>
<!DOCTYPE svg PUBLIC "-//W3C//DTD SVG 20010904//EN"
 "http://www.w3.org/TR/2001/REC-SVG-20010904/DTD/svg10.dtd">
<svg version="1.0" xmlns="http://www.w3.org/2000/svg"
 width="992.000000pt" height="992.000000pt" viewBox="0 0 992.000000 992.000000"
 preserveAspectRatio="xMidYMid meet">
<metadata>
Created by potrace 1.11, written by Peter Selinger 2001-2013
</metadata>
<g transform="translate(0.000000,992.000000) scale(0.100000,-0.100000)"
fill="#000000" stroke="none">
<path d="M4745 7228 c-56 -20 -200 -80 -287 -120 l-87 -40 -5 -52 c-3 -28 -8
-85 -11 -126 -6 -94 -25 -326 -29 -362 -1 -16 -2 -28 0 -28 1 0 12 17 24 37
16 28 26 75 41 197 10 89 24 194 30 233 l12 73 76 29 c42 16 85 32 97 35 41
13 113 14 129 2 9 -7 77 -216 173 -536 142 -472 185 -601 198 -588 2 3 -9 67
-25 144 -40 189 -51 243 -137 664 -85 417 -78 390 -105 424 -22 28 -45 31 -94
14z"/>
<path d="M9126 6924 c-137 -30 -140 -39 -11 -36 147 5 235 -14 357 -75 71 -36
107 -62 172 -127 46 -46 96 -108 116 -144 53 -95 61 -104 54 -62 -17 93 -102
240 -185 320 -128 121 -308 165 -503 124z"/>
<path d="M6879 6840 c-161 -27 -282 -65 -559 -174 -43 -17 -351 -182 -457
-245 -140 -83 -363 -231 -506 -336 -86 -64 -217 -195 -217 -218 0 -10 -25 -25
265 158 229 145 478 295 487 295 3 0 -9 -28 -26 -62 -27 -55 -31 -72 -31 -148
0 -47 5 -94 11 -104 10 -16 13 -9 23 46 26 151 71 241 161 320 123 108 412
245 639 302 131 33 143 33 95 -2 -21 -16 -54 -46 -73 -67 -93 -107 -130 -205
-140 -374 l-6 -113 -239 -49 c-132 -27 -248 -52 -259 -55 -37 -12 -9 -14 59
-5 38 5 103 12 144 16 41 4 86 8 100 10 14 2 59 6 100 10 41 4 86 8 100 10 14
2 50 7 80 10 163 19 365 48 510 75 58 10 150 26 205 36 55 9 109 18 120 20 11
2 90 15 175 29 306 48 435 60 655 60 196 0 275 -8 423 -41 130 -29 161 -40
316 -113 60 -28 110 -50 112 -48 8 8 -63 96 -109 134 -110 92 -221 133 -432
158 -115 14 -385 17 -494 5 l-65 -6 -76 57 c-120 88 -400 283 -450 312 -43 24
-138 65 -170 72 -8 2 -42 11 -75 20 -89 25 -268 27 -396 5z m385 -131 c21 -6
46 -12 55 -14 37 -7 307 -136 417 -200 66 -38 144 -82 174 -99 l55 -30 -85
-13 c-47 -6 -103 -14 -126 -17 -102 -15 -541 -91 -846 -149 l-338 -63 0 35 c0
20 8 65 19 101 62 218 230 391 431 444 66 18 190 20 244 5z"/>
<path d="M9135 6702 l-60 -17 100 -6 c55 -4 120 -12 145 -19 120 -33 240 -123
307 -232 20 -32 37 -58 39 -58 8 0 -22 83 -49 135 -42 79 -113 150 -185 183
-73 34 -205 40 -297 14z"/>
<path d="M9112 6526 c-29 -7 -55 -15 -57 -18 -3 -3 28 -8 69 -11 161 -14 291
-92 404 -242 l22 -30 -6 30 c-11 50 -56 135 -96 180 -76 86 -212 123 -336 91z"/>
<path d="M8742 6077 c-134 -72 -210 -223 -200 -396 8 -116 54 -207 117 -226
l23 -7 -25 44 c-94 162 -62 384 69 485 41 31 146 42 225 23 128 -30 284 -124
361 -218 l28 -33 -26 -52 c-55 -110 -156 -212 -302 -307 -29 -18 -52 -37 -52
-42 0 -4 16 -8 35 -8 71 0 218 85 329 189 66 63 136 163 136 196 0 31 -68 132
-123 182 -167 153 -467 239 -595 170z"/>
<path d="M4560 5932 c-277 -25 -842 -132 -1175 -222 l-110 -30 70 6 c39 3 78
8 88 10 10 1 70 10 135 19 64 9 131 18 147 21 261 45 811 114 902 114 56 0 64
-3 79 -25 13 -19 15 -38 11 -77 -6 -50 -6 -50 13 -33 34 31 63 102 56 139 -10
54 -42 75 -116 79 -36 1 -81 1 -100 -1z"/>
<path d="M8712 5838 c-39 -64 -41 -63 156 -64 131 -1 204 -7 281 -21 104 -20
104 -20 80 0 -80 65 -218 107 -375 114 l-121 6 -21 -35z"/>
<path d="M5137 5635 c-1 -2 -40 -5 -87 -8 -589 -39 -949 -453 -935 -1077 6
-320 105 -562 303 -752 204 -195 466 -280 836 -272 343 7 572 66 819 210 l77
46 0 373 0 374 -24 28 -24 28 -385 3 c-423 3 -447 0 -467 -54 -6 -14 -9 -75
-8 -135 4 -159 -5 -153 248 -157 l200 -4 0 -124 0 -124 -47 -30 c-99 -62 -249
-95 -433 -95 -325 1 -491 119 -569 405 -53 194 -46 486 15 669 82 247 245 354
539 355 170 0 295 -42 410 -138 114 -96 135 -98 262 -25 48 28 103 62 121 75
57 44 40 96 -60 189 -144 134 -298 202 -506 225 -88 9 -279 19 -285 15z"/>
<path d="M91 5573 c-18 -9 -37 -27 -42 -41 -6 -14 -8 -404 -7 -964 l3 -940 28
-24 c27 -23 33 -24 188 -24 186 0 212 8 229 68 8 26 10 235 8 694 -2 361 -2
655 0 654 1 -2 20 -54 41 -117 22 -63 100 -293 175 -513 75 -219 136 -407 136
-416 0 -10 4 -20 8 -22 4 -1 25 -55 46 -118 79 -234 67 -225 306 -225 242 0
224 -14 310 239 236 688 327 956 357 1046 19 57 38 110 41 117 4 6 6 -275 4
-625 -1 -350 0 -661 4 -690 5 -46 10 -56 37 -73 28 -17 51 -19 187 -19 136 0
159 2 187 19 25 16 33 29 38 63 3 24 5 454 3 955 l-3 913 -28 27 -27 28 -268
0 c-291 0 -300 -2 -337 -59 -19 -28 -14 -15 -232 -651 -233 -679 -252 -737
-259 -801 -4 -30 -10 -54 -14 -54 -4 0 -11 25 -15 55 -6 52 -70 246 -364 1104
-67 195 -121 337 -136 357 -37 49 -74 55 -338 54 -191 -1 -238 -4 -266 -17z"/>
<path d="M2720 5584 c-40 -14 -60 -29 -70 -53 -7 -18 -10 -308 -8 -964 l3
-939 29 -24 c28 -25 32 -25 185 -23 186 2 223 14 235 80 3 13 5 187 5 387 l1
362 406 0 406 0 29 29 c28 29 29 32 29 136 0 111 -12 155 -47 171 -10 4 -180
9 -378 11 -198 1 -379 2 -402 3 l-43 0 0 240 0 239 475 3 474 3 23 23 c21 21
23 32 25 138 1 114 1 116 -27 147 l-28 32 -654 2 c-359 1 -660 0 -668 -3z"/>
<path d="M6208 5578 c-18 -3 -43 -18 -55 -33 -21 -24 -23 -36 -23 -135 0 -60
5 -120 11 -133 23 -51 31 -52 373 -55 176 -1 321 -4 323 -6 2 -2 5 -361 6
-799 2 -766 3 -796 21 -816 18 -20 29 -21 208 -21 175 0 189 1 208 20 20 20
20 33 20 819 l0 799 328 4 c351 3 358 4 381 55 6 13 11 74 11 134 0 109 0 111
-29 140 -18 17 -41 29 -58 30 -120 5 -1699 3 -1725 -3z"/>
<path d="M8473 5207 c6 -62 56 -162 104 -211 62 -62 124 -88 223 -93 47 -3 96
0 110 5 25 11 25 11 -6 11 -54 1 -157 39 -220 79 -71 46 -145 126 -186 203
l-30 54 5 -48z"/>
<path d="M8330 5114 c0 -11 7 -45 16 -75 47 -156 136 -254 272 -295 53 -17
196 -20 233 -5 23 9 22 10 -11 11 -61 1 -163 30 -238 67 -99 49 -178 130 -231
236 -23 45 -41 73 -41 61z"/>
<path d="M8170 5058 c-1 -89 69 -263 142 -353 74 -91 177 -156 292 -184 52
-13 196 -16 261 -5 50 7 58 14 19 15 -99 2 -216 30 -307 73 -176 82 -301 217
-378 411 -21 51 -28 63 -29 43z"/>
<path d="M1875 3361 c-63 -16 -88 -46 -97 -121 -3 -23 -7 -25 -60 -25 -45 0
-61 -5 -81 -23 l-25 -24 -4 24 c-3 22 -17 26 -53 14 -6 -2 -10 -69 -10 -176 1
-165 2 -173 21 -181 41 -15 47 2 49 131 2 104 5 126 22 148 25 34 60 47 106
38 l36 -7 3 -152 3 -152 30 0 30 0 -1 153 0 152 33 0 c22 0 36 6 43 19 12 24
1 33 -44 35 -29 2 -31 4 -28 36 1 18 7 39 13 46 15 18 59 25 94 16 l30 -8 0
-223 c0 -234 3 -245 46 -234 18 5 19 18 19 244 l0 238 -27 15 c-35 18 -109 26
-148 17z"/>
<path d="M5394 3347 c-2 -7 -3 -120 -2 -252 l3 -240 30 0 30 0 5 136 c6 158
15 179 80 179 69 0 74 -11 80 -172 l5 -143 33 -3 32 -3 0 136 c0 95 -4 146
-14 170 -26 62 -107 83 -179 46 l-37 -19 0 89 0 89 -30 0 c-17 0 -33 -6 -36
-13z"/>
<path d="M50 3330 c-5 -9 -8 -120 -7 -246 l2 -229 31 -3 c40 -4 40 -3 38 206
0 90 2 159 6 155 4 -4 31 -80 60 -168 63 -192 70 -205 107 -199 15 3 29 7 31
9 2 1 32 90 67 196 l64 194 1 -197 0 -198 35 0 35 0 0 245 c0 272 7 246 -70
249 l-35 1 -33 -100 c-18 -55 -48 -148 -66 -207 l-32 -108 -59 188 c-31 103
-63 196 -70 206 -16 26 -92 30 -105 6z"/>
<path d="M4973 3343 c-7 -2 -13 -15 -13 -28 0 -27 27 -36 106 -34 29 1 56 -1
61 -4 5 -3 8 -96 8 -207 0 -110 2 -206 6 -211 3 -6 19 -9 35 -7 l29 3 3 213
c2 159 5 212 15 213 6 1 37 1 67 0 77 -1 92 5 88 37 l-3 27 -195 2 c-107 1
-201 -1 -207 -4z"/>
<path d="M1000 3288 c-11 -18 -20 -43 -20 -54 0 -14 -6 -21 -17 -21 -37 0 -43
-3 -43 -22 0 -12 10 -23 28 -28 l27 -10 1 -127 c1 -112 4 -131 21 -154 18 -24
27 -27 72 -26 65 2 92 21 73 52 -7 10 -16 10 -42 1 -52 -19 -60 1 -60 147 l0
122 43 -1 c39 -2 42 0 42 23 0 22 -5 25 -42 28 l-43 3 0 44 c0 56 -14 65 -40
23z"/>
<path d="M683 3214 c-56 -13 -113 -106 -113 -186 0 -79 57 -163 118 -174 100
-20 161 4 199 75 45 85 21 213 -49 265 -27 19 -108 30 -155 20z m108 -54 c10
-6 26 -24 34 -40 19 -37 20 -142 0 -179 -31 -60 -117 -64 -159 -8 -26 35 -30
148 -6 192 22 41 86 59 131 35z"/>
<path d="M1255 3201 c-130 -59 -113 -314 24 -348 85 -22 160 6 199 73 19 33
22 51 20 115 -3 65 -7 81 -32 113 -49 65 -132 84 -211 47z m137 -51 c44 -34
56 -145 24 -208 -31 -60 -117 -66 -158 -11 -23 31 -32 125 -16 170 22 64 100
89 150 49z"/>
<path d="M2126 3208 c-15 -8 -17 -26 -15 -131 1 -66 7 -137 14 -156 23 -68 98
-94 173 -61 34 15 41 16 46 4 3 -8 19 -14 36 -14 l30 0 -2 182 c-3 158 -5 181
-19 183 -38 6 -43 -10 -44 -138 -1 -163 -23 -199 -109 -183 -48 9 -56 37 -56
185 0 117 -2 129 -19 134 -10 2 -26 0 -35 -5z"/>
<path d="M2524 3202 c-86 -55 -98 -258 -19 -332 36 -34 117 -40 156 -11 l29
22 0 -44 c0 -66 -17 -82 -88 -82 -45 0 -65 5 -81 19 -17 15 -23 16 -36 6 -45
-37 17 -75 123 -74 84 1 120 20 139 75 16 48 16 426 0 432 -17 6 -57 -10 -57
-24 0 -7 -8 -5 -20 6 -30 27 -108 31 -146 7z m118 -31 c4 -1 16 -11 28 -23 17
-18 20 -35 20 -109 0 -104 -3 -115 -42 -135 -73 -38 -128 16 -128 126 0 101
37 155 100 144 8 -1 18 -3 22 -3z"/>
<path d="M2900 3213 c-61 -22 -108 -126 -95 -211 19 -138 115 -201 213 -140
l35 21 -6 -48 c-3 -34 -12 -55 -27 -67 -30 -25 -96 -23 -139 3 -30 18 -35 19
-49 5 -14 -14 -14 -17 3 -36 45 -50 182 -50 238 0 l32 28 3 218 c2 158 0 219
-9 224 -17 11 -49 0 -49 -16 0 -11 -8 -9 -37 6 -36 19 -81 24 -113 13z m125
-64 c17 -17 20 -33 20 -115 0 -92 -1 -97 -28 -120 -71 -61 -147 3 -147 124 0
114 87 176 155 111z"/>
<path d="M3193 3209 c-23 -8 -23 -11 -23 -178 0 -147 2 -171 16 -179 9 -5 25
-7 35 -5 17 5 19 16 19 107 0 154 20 200 92 215 24 5 33 12 33 26 0 29 -68 25
-100 -5 -24 -23 -25 -23 -25 -3 0 25 -17 33 -47 22z"/>
<path d="M3403 3213 c-10 -3 -13 -40 -13 -135 0 -141 12 -185 57 -215 31 -20
113 -20 145 1 23 15 26 15 32 1 4 -11 15 -15 33 -13 l28 3 3 176 c2 162 1 177
-15 181 -49 11 -51 6 -55 -143 -3 -134 -4 -142 -27 -160 -31 -25 -85 -25 -111
1 -18 18 -20 33 -20 155 0 123 -2 135 -19 145 -11 5 -21 10 -23 9 -2 0 -9 -3
-15 -6z"/>
<path d="M3758 3209 c-15 -8 -17 -36 -18 -238 0 -125 2 -235 6 -245 9 -24 43
-20 53 7 4 12 7 52 6 89 l-2 67 29 -21 c33 -23 91 -28 134 -10 107 45 115 278
12 342 -39 25 -117 23 -146 -4 -20 -17 -37 -22 -27 -7 9 15 -28 31 -47 20z
m182 -52 c30 -15 49 -65 49 -127 -1 -98 -43 -149 -115 -136 -52 10 -64 37 -64
139 0 80 2 90 25 112 27 28 66 32 105 12z"/>
<path d="M4118 3212 c-17 -3 -18 -24 -18 -253 l0 -250 28 3 c27 3 27 4 29 78
1 41 2 79 2 84 1 4 13 0 28 -9 35 -23 112 -23 147 1 61 39 90 156 62 241 -32
98 -116 138 -198 95 -28 -14 -38 -16 -38 -7 0 15 -18 23 -42 17z m174 -53 c46
-25 64 -152 30 -219 -28 -57 -97 -66 -142 -18 -17 18 -20 35 -20 101 0 79 10
111 39 134 20 15 66 16 93 2z"/>
<path d="M4530 3207 c-21 -8 -45 -28 -64 -55 -27 -39 -30 -51 -31 -120 0 -129
49 -183 169 -185 55 -1 69 3 100 26 40 31 43 39 21 57 -11 9 -20 8 -43 -8 -65
-47 -138 -36 -167 24 -26 56 -21 59 111 59 l119 0 3 39 c10 123 -98 204 -218
163z m111 -48 c19 -10 27 -24 43 -76 7 -23 6 -23 -88 -23 -59 0 -96 4 -96 10
0 23 29 79 47 89 23 14 69 14 94 0z"/>
<path d="M5773 3212 c-23 -3 -23 -6 -23 -140 0 -154 12 -191 72 -216 38 -16
100 -12 132 9 21 14 24 14 30 0 4 -11 15 -15 33 -13 l28 3 3 176 2 177 -25 4
c-14 3 -29 0 -34 -6 -5 -6 -11 -71 -13 -144 -3 -127 -4 -135 -27 -153 -31 -25
-85 -25 -111 1 -18 18 -20 33 -20 154 0 142 -4 155 -47 148z"/>
<path d="M6116 3208 c-14 -8 -16 -32 -16 -178 0 -146 2 -170 16 -178 9 -5 25
-7 35 -5 17 5 19 17 19 114 0 149 20 193 93 208 23 5 32 12 32 26 0 29 -68 25
-100 -5 -24 -23 -25 -23 -25 -3 0 24 -29 35 -54 21z"/>
<path d="M6378 3203 c-48 -30 -73 -89 -73 -173 1 -123 50 -190 141 -190 20 0
52 9 70 20 l33 21 -3 -28 c-2 -15 -4 -36 -5 -45 -3 -56 -95 -77 -159 -38 -27
16 -37 18 -48 9 -22 -18 -17 -33 19 -54 43 -27 162 -27 201 -1 49 32 56 66 56
284 0 109 -3 201 -6 204 -9 10 -59 -9 -56 -21 3 -16 -6 -14 -35 9 -32 25 -97
26 -135 3z m147 -54 c17 -17 20 -33 20 -115 0 -92 -1 -97 -28 -120 -71 -61
-147 3 -147 124 0 113 89 177 155 111z"/>
<path d="M6745 3210 c-46 -14 -79 -48 -64 -66 15 -19 26 -18 56 6 32 25 104
27 127 4 9 -8 16 -30 16 -48 l0 -33 -61 -7 c-126 -13 -191 -84 -152 -165 10
-20 29 -41 43 -48 34 -17 99 -16 134 2 17 9 32 12 35 6 6 -10 25 -14 54 -12
15 1 17 14 17 124 0 139 -9 184 -45 217 -28 26 -107 36 -160 20z m127 -292
c-17 -17 -90 -28 -117 -18 -30 11 -39 31 -31 65 8 31 36 46 100 54 l51 6 3
-49 c2 -27 -1 -53 -6 -58z"/>
<path d="M7023 3213 c-18 -6 -18 -268 0 -302 31 -60 109 -83 174 -50 33 17 37
17 48 3 6 -9 22 -14 36 -12 l24 3 3 173 c2 171 2 173 -20 181 -44 16 -48 6
-48 -119 0 -64 -5 -132 -11 -149 -18 -51 -86 -68 -130 -32 -21 17 -23 26 -25
152 -1 74 -3 137 -3 140 -1 9 -33 17 -48 12z"/>
</g>
</svg>
