<?xml version="1.0" encoding="utf-8"?>
<!-- Generator: Adobe Illustrator 16.0.0, SVG Export Plug-In . SVG Version: 6.00 Build 0)  -->
<!DOCTYPE svg PUBLIC "-//W3C//DTD SVG 1.1//EN" "http://www.w3.org/Graphics/SVG/1.1/DTD/svg11.dtd">
<svg version="1.1" xmlns="http://www.w3.org/2000/svg" xmlns:xlink="http://www.w3.org/1999/xlink" x="0px" y="0px" width="495.5px"
	 height="231px" viewBox="0 0 495.5 231" style="enable-background:new 0 0 495.5 231;" xml:space="preserve">
<g id="Layer_3">
	<g>
		<g>
			<path style="fill-rule:evenodd;clip-rule:evenodd;fill:#262C36;" d="M438.4,59.5c-10.9,4.8-13.6,18.7-9.9,26.4
				c0,0,0.4,2.1,1.8,3.7c1.2,1.1,3.5,2.1,3.9,2c-7-8.7-5.1-21.6,2.9-27.2c13.1-5,29.3,9.3,29.9,12.4c-3.8,9-9.4,13.1-17.7,18.7
				c-4.2,1.7,2.5,1.8,4,0.6c13.4-5.8,20-16.8,19.8-18.4C467.4,62.9,446.6,57.3,438.4,59.5z"/>
			<path style="fill-rule:evenodd;clip-rule:evenodd;fill:#262C36;" d="M437.2,70.4c0,0-3.1,2.7-2.6,5.1c11.7-2.1,28.2,1.8,28.2,1.8
				C450.5,68.1,437,71.4,437.2,70.4z"/>
			<path style="fill-rule:evenodd;clip-rule:evenodd;fill:#262C36;" d="M362.7,55.9c32.5-5.6,54.4-9.7,78-3.1
				c5.4,1.4,16.9,7.5,16.9,7.5c-1.5-3.6-6-8.5-13.7-12c-5.6-2.7-20.5-4.4-37.6-3.3c-1.1,0.1-2.6,0.2-4.1,0.4
				c-8.5-6.6-18.6-13.4-23.5-16.8c-2.9-2-6.7-3.9-11.4-5.4l-0.8,6.1c3.4,1.3,6.4,2.8,9.1,4c6.2,2.8,13.2,6.9,18.7,10.2
				c1.5,1,3,1.6,4.3,2.4c-9.3,1-21.7,3.1-35.2,5.5L362.7,55.9z M303.9,63.6c3.6-0.5,9.9-1.1,19.2-2c15.3-1.6,25.3-3.2,25.3-3.2
				c4.9-0.8,9.8-1.7,14.2-2.5l0.6-4.5c-11.3,2.1-23.3,4.4-34.8,6.5c-1.2-7.9,9-31.6,31.5-30.1c0.3,0,0.7,0.1,0.9,0.1
				c1.9,0.3,3.7,0.9,5.4,1.4l0.8-6.1c-3.1-1-6.7-1.7-10.5-2c-37.2-1.8-90,39.7-93.6,42.4c-0.5,0.6-5.4,5.9-5.9,7.1l0,0.3
				c0,0,0.1,0,0.6-0.3c13-8.3,31.3-20,38.2-23.5c-4.4,5.2-4.7,10.5-3.7,15.7c0.1,0.3,0.3,1,0.8,1.5c1.6-13.3,5.8-17.6,12.4-22.1
				c11.2-7.2,24.2-11.9,35.6-13.7c-16.9,10.3-13,29.5-13.1,29.6c-2.8,0.4-5.6,1-8.4,1.6c-7.8,1.5-19.1,4-19.1,4
				S301.6,63.8,303.9,63.6z"/>
			<path style="fill-rule:evenodd;clip-rule:evenodd;fill:#262C36;" d="M240.3,2c-1.9-0.1-15.3,5.4-21.9,9c0,3.8-2.2,28.8-2.1,28.3
				c0.2-0.5,1-2.4,2.2-3.9c0.6-5.1,2.1-19.9,3.2-23.4c3.4-1.7,14.5-6.2,16-2.6L253.4,62l2.1,3.4L243.2,5.5
				C242.7,4.5,242.2,2.9,240.3,2z"/>
			<path style="fill-rule:evenodd;clip-rule:evenodd;fill:#262C36;" d="M451.7,39c5.3-0.6,17.6,0.4,25.6,13.6
				C477.4,50.1,471.7,31.2,451.7,39z"/>
			<path style="fill-rule:evenodd;clip-rule:evenodd;fill:#262C36;" d="M453.6,30c7.6-0.9,22.7,0.3,29.6,15.9
				C483.4,43.1,476.8,21.3,453.6,30z"/>
			<path style="fill-rule:evenodd;clip-rule:evenodd;fill:#262C36;" d="M449.3,20c9.8-2.2,30.7-1.4,41.6,21.9
				C491,38.1,481.8,7.7,449.3,20z"/>
			<path style="fill-rule:evenodd;clip-rule:evenodd;fill:#262C36;" d="M423.4,101.3c-0.2,2.4,2.9,21.6,23.6,17
				C441.7,118.2,429.7,115.6,423.4,101.3z"/>
			<path style="fill-rule:evenodd;clip-rule:evenodd;fill:#262C36;" d="M416.6,106.9c-0.4,2.9,3.3,25.4,27.5,19.8
				C436.5,126.7,421.6,123.5,416.6,106.9z"/>
			<path style="fill-rule:evenodd;clip-rule:evenodd;fill:#262C36;" d="M408.5,109.8c-0.5,3.9,5,35.2,38.5,27.6
				C437.1,138.2,416.4,134.4,408.5,109.8z"/>
			<path style="fill-rule:evenodd;clip-rule:evenodd;fill:#262C36;" d="M163.9,79.9c-3.6,1.1,37.3-5.1,37.3-5.1s27.4-4.1,31.9-3.4
				c4.4,0.6,1.7,7.7,1.7,7.7s7.3-5.7,2.3-10.8C232.8,64.1,182.3,74.8,163.9,79.9z"/>
		</g>
	</g>
</g>
<g id="Layer_1__x2B__Ebene_1__x2B__Mfgt_xA0_Image_1_">
	<g>
		<path style="fill:#EA3728;" d="M7.5,185c-3.6,0-5.4-1.7-5.4-5.2V90c0-3.5,1.8-5.2,5.4-5.2H30c3,0,5.1,1.9,6.4,5.6l21,61.3
			c0.9,2.7,1.6,4.8,1.9,6.5c0.4,1.7,0.7,3.7,0.9,6h0.5c0.3-2.3,0.6-4.3,0.9-6c0.4-1.7,1-3.9,1.9-6.5l21-61.3
			c1.3-3.7,3.4-5.6,6.4-5.6h22.5c3.6,0,5.4,1.7,5.4,5.2v89.7c0,3.5-1.8,5.2-5.4,5.2h-11.8c-3.6,0-5.4-1.7-5.4-5.2V122
			c0-2.8,0.1-5.6,0.4-8.4h-0.5l-22.4,65.7c-1.3,3.8-3.5,5.7-6.7,5.7H54c-3.2,0-5.4-1.9-6.7-5.7l-22.4-65.7h-0.5
			c0.3,2.8,0.4,5.6,0.4,8.4v57.7c0,3.5-1.8,5.2-5.4,5.2H7.5z"/>
		<path style="fill:#EA3728;" d="M137.5,185c-3.6,0-5.4-1.7-5.4-5.2V90c0-3.5,1.8-5.2,5.4-5.2h61.4c3.9,0,5.8,1.5,5.8,4.5v8.2
			c0,3-1.9,4.5-5.8,4.5h-44.2v24.3h37.8c3.9,0,5.8,1.5,5.8,4.5v8.2c0,3-1.9,4.5-5.8,4.5h-37.8v36c0,3.5-1.8,5.2-5.4,5.2H137.5z"/>
		<path style="fill:#EA3728;" d="M205.7,134.9c0-16.1,4.7-28.8,14-38.3c9.3-9.5,22.5-14.2,39.6-14.2c10.3,0,18.4,1.2,24.3,3.6
			c5.9,2.4,11,6.1,15.5,11c2.7,3,2.6,5.4-0.2,7.1l-8.9,5.2c-2.6,1.5-5.4,0.9-8.3-2c-2.4-2.4-5.5-4.4-9.2-5.9
			c-3.7-1.6-7.8-2.4-12.3-2.4c-10.9,0-18.6,3.1-23.2,9.3c-4.6,6.2-6.9,15.1-6.9,26.7c0,11.6,2.3,20.6,6.9,26.7
			c4.6,6.2,12.3,9.3,23.2,9.3c5.3,0,9.8-0.5,13.7-1.4c3.8-1,7.5-2.7,10.9-5.2v-12.5h-16.8c-3.9,0-5.8-1.5-5.8-4.5v-8.2
			c0-3,1.9-4.5,5.8-4.5h33.7c3.9,0,5.8,1.5,5.8,4.5v35.5c-7.2,4.8-14.6,8.2-21.9,10.1c-7.4,1.9-16.1,2.9-26,2.9
			c-16.8,0-30-4.7-39.4-14.2C210.4,163.7,205.7,151,205.7,134.9z"/>
		<path style="fill:#EA3728;" d="M312.7,102.7c-4,0-6-1.5-6-4.5v-8.8c0-3,2-4.5,6-4.5h82.1c4,0,6,1.5,6,4.5v8.8c0,3-2,4.5-6,4.5H365
			v78.5c0,2.6-1.3,3.8-3.9,3.8h-14.9c-2.6,0-3.9-1.3-3.9-3.8v-78.5H312.7z"/>
	</g>
</g>
<g id="Motorfluggruppe_Thurgau">
	<g>
		<path style="fill:#262C36;" d="M3.2,221.5c-0.6,0-0.9-0.3-0.9-0.9v-22.8c0-0.6,0.3-0.9,0.9-0.9h3.7c0.4,0,0.8,0.3,1,1l4.9,15.5
			c0.5,1.6,0.8,2.5,0.9,2.9c0.1,0.3,0.2,0.9,0.4,1.8h0.1c0.2-0.9,0.3-1.5,0.4-1.8c0.1-0.3,0.4-1.3,0.9-2.9l4.9-15.5
			c0.2-0.7,0.5-1,1-1h3.7c0.6,0,0.9,0.3,0.9,0.9v22.8c0,0.6-0.3,0.9-0.9,0.9h-1.6c-0.6,0-0.9-0.3-0.9-0.9v-18.1c0-0.5,0-0.9,0-1.4
			h-0.1l-6.4,19.4c-0.2,0.7-0.6,1.1-1.1,1.1h-1.9c-0.5,0-0.9-0.4-1.1-1.1l-6.4-19.4H5.6c0,0.5,0,0.9,0,1.4v18.1
			c0,0.6-0.3,0.9-0.9,0.9H3.2z"/>
		<path style="fill:#262C36;" d="M28.7,212.4c0-2.7,0.7-4.9,2.1-6.7c1.4-1.8,3.5-2.6,6.3-2.6c2.8,0,4.9,0.9,6.3,2.6
			c1.4,1.8,2.1,4,2.1,6.7s-0.7,4.9-2.1,6.7c-1.4,1.8-3.5,2.6-6.3,2.6c-2.8,0-4.9-0.9-6.3-2.6S28.7,215.1,28.7,212.4z M31.9,212.4
			c0,2.4,0.5,4.2,1.4,5.4c1,1.2,2.2,1.7,3.8,1.7s2.8-0.6,3.8-1.7c1-1.2,1.4-2.9,1.4-5.4s-0.5-4.2-1.4-5.4c-1-1.2-2.2-1.7-3.8-1.7
			s-2.8,0.6-3.8,1.7C32.4,208.2,31.9,210,31.9,212.4z"/>
		<path style="fill:#262C36;" d="M47,205.6c-0.5,0-0.8-0.2-0.8-0.6V204c0-0.4,0.3-0.6,0.8-0.6h2v-1.6c0-0.2,0.1-0.4,0.2-0.7l1.2-2.2
			c0.2-0.4,0.4-0.6,0.5-0.6h0.6c0.3,0,0.5,0.2,0.5,0.6v4.4h3.7c0.5,0,0.8,0.2,0.8,0.6v1.1c0,0.4-0.3,0.6-0.8,0.6H52v11
			c0,1.2,0.2,2,0.5,2.4c0.4,0.4,0.8,0.5,1.3,0.5c0.4,0,0.9-0.1,1.4-0.3c0.5-0.2,0.9-0.4,1.1-0.6c0.2-0.2,0.4-0.1,0.5,0.2l0.6,1.3
			c0.1,0.2,0,0.4-0.2,0.6c-0.4,0.3-1.1,0.5-2,0.8c-0.9,0.2-1.7,0.4-2.6,0.4c-1.2,0-2.1-0.4-2.7-1.3c-0.6-0.9-1-2.1-1-3.7v-11.2H47z"
			/>
		<path style="fill:#262C36;" d="M58.3,212.4c0-2.7,0.7-4.9,2.1-6.7c1.4-1.8,3.5-2.6,6.3-2.6c2.8,0,4.9,0.9,6.3,2.6
			c1.4,1.8,2.1,4,2.1,6.7s-0.7,4.9-2.1,6.7c-1.4,1.8-3.5,2.6-6.3,2.6c-2.8,0-4.9-0.9-6.3-2.6S58.3,215.1,58.3,212.4z M61.5,212.4
			c0,2.4,0.5,4.2,1.4,5.4c1,1.2,2.2,1.7,3.8,1.7s2.8-0.6,3.8-1.7c1-1.2,1.4-2.9,1.4-5.4s-0.5-4.2-1.4-5.4c-1-1.2-2.2-1.7-3.8-1.7
			s-2.8,0.6-3.8,1.7C62,208.2,61.5,210,61.5,212.4z"/>
		<path style="fill:#262C36;" d="M78.2,221.5c-0.5,0-0.8-0.3-0.8-0.8v-16.5c0-0.5,0.3-0.8,0.8-0.8h1.4c0.5,0,0.8,0.3,0.8,0.8v2.1
			c0.6-1,1.2-1.8,2-2.3c0.8-0.5,1.7-0.8,2.8-0.8c0.7,0,1.3,0.1,1.6,0.2c0.3,0.1,0.4,0.3,0.3,0.5l-0.4,1.4c-0.1,0.2-0.2,0.3-0.4,0.2
			c-0.4-0.1-0.8-0.1-1.1-0.1c-1.4,0-2.5,0.6-3.3,1.8c-0.9,1.2-1.3,2.9-1.3,5v8.6c0,0.5-0.3,0.8-0.8,0.8H78.2z"/>
		<path style="fill:#262C36;" d="M87.4,205.6c-0.5,0-0.8-0.2-0.8-0.6V204c0-0.4,0.3-0.6,0.8-0.6h1.8v-2.1c0-2.1,0.7-3.5,2.1-4.3
			c1.4-0.8,3-1.2,4.7-1.2c1.6,0,3,0.2,4,0.6c1.1,0.4,1.9,0.8,2.5,1.4v23c0,0.5-0.3,0.8-0.8,0.8h-1.5c-0.5,0-0.8-0.3-0.8-0.8V199
			c-0.5-0.4-1.1-0.6-1.7-0.8s-1.2-0.2-1.7-0.2c-0.9,0-1.7,0.2-2.6,0.6s-1.3,1.5-1.3,3.2v1.6h3.2c0.5,0,0.8,0.2,0.8,0.6v1.1
			c0,0.4-0.3,0.6-0.8,0.6h-3.2v15c0,0.5-0.3,0.8-0.8,0.8H90c-0.5,0-0.8-0.3-0.8-0.8v-15H87.4z"/>
		<path style="fill:#262C36;" d="M105.8,215.2v-11c0-0.5,0.3-0.8,0.8-0.8h1.5c0.5,0,0.8,0.3,0.8,0.8v10.2c0,2.3,0.4,3.7,1.1,4.3
			c0.7,0.6,1.7,0.9,2.8,0.9c1.5,0,2.6-0.4,3.4-1.3c0.8-0.9,1.2-2.4,1.2-4.6v-9.5c0-0.5,0.3-0.8,0.8-0.8h1.5c0.5,0,0.8,0.3,0.8,0.8
			v16.5c0,0.5-0.3,0.8-0.8,0.8H118c-0.5,0-0.8-0.3-0.8-0.8v-1.4c-0.8,0.8-1.6,1.4-2.4,1.8c-0.9,0.4-1.9,0.6-3.2,0.6
			c-2,0-3.5-0.6-4.4-1.8S105.8,217.2,105.8,215.2z"/>
		<path style="fill:#262C36;" d="M122.5,212.4c0-2.5,0.6-4.6,1.8-6.5c1.2-1.9,2.9-2.8,5.2-2.8c1.3,0,2.4,0.2,3.2,0.7s1.5,1,2.1,1.8
			v-1.4c0-0.5,0.2-0.8,0.7-0.8h1.5c0.6,0,0.8,0.3,0.8,0.8v17.5c0,2.2-0.5,3.9-1.5,5.2c-1,1.2-3,1.9-6,1.9c-2,0-3.5-0.2-4.5-0.7
			c-1-0.5-1.7-0.9-2.1-1.4c-0.3-0.4-0.3-0.7-0.1-1l0.9-0.9c0.3-0.3,0.6-0.2,1.1,0.2c0.6,0.6,1.2,0.9,1.8,1.2
			c0.6,0.2,1.5,0.4,2.9,0.4c1.6,0,2.7-0.3,3.4-1c0.7-0.7,1.1-2,1.1-4.1v-1c0-0.4,0-0.7,0-1.1h0c-0.6,0.8-1.3,1.4-2.1,1.9
			c-0.8,0.5-1.9,0.7-3.2,0.7c-2.3,0-4-0.9-5.2-2.8C123.1,217.1,122.5,214.9,122.5,212.4z M125.7,212.4c0,2.1,0.4,3.8,1.1,5.1
			c0.7,1.3,2,2,3.7,2c1.2,0,2.3-0.4,3.1-1.3c0.8-0.8,1.2-2.1,1.2-3.9v-4c0-1.7-0.4-3-1.2-3.9c-0.8-0.8-1.9-1.3-3.1-1.3
			c-1.7,0-3,0.7-3.7,2C126.1,208.6,125.7,210.3,125.7,212.4z"/>
		<path style="fill:#262C36;" d="M140.2,212.4c0-2.5,0.6-4.6,1.8-6.5c1.2-1.9,2.9-2.8,5.2-2.8c1.3,0,2.4,0.2,3.2,0.7s1.5,1,2.1,1.8
			v-1.4c0-0.5,0.2-0.8,0.7-0.8h1.5c0.6,0,0.8,0.3,0.8,0.8v17.5c0,2.2-0.5,3.9-1.5,5.2c-1,1.2-3,1.9-6,1.9c-2,0-3.5-0.2-4.5-0.7
			c-1-0.5-1.7-0.9-2.1-1.4c-0.3-0.4-0.3-0.7-0.1-1l0.9-0.9c0.3-0.3,0.6-0.2,1.1,0.2c0.6,0.6,1.2,0.9,1.8,1.2
			c0.6,0.2,1.5,0.4,2.9,0.4c1.6,0,2.7-0.3,3.4-1c0.7-0.7,1.1-2,1.1-4.1v-1c0-0.4,0-0.7,0-1.1h0c-0.6,0.8-1.3,1.4-2.1,1.9
			c-0.8,0.5-1.9,0.7-3.2,0.7c-2.3,0-4-0.9-5.2-2.8C140.8,217.1,140.2,214.9,140.2,212.4z M143.4,212.4c0,2.1,0.4,3.8,1.1,5.1
			c0.7,1.3,2,2,3.7,2c1.2,0,2.3-0.4,3.1-1.3c0.8-0.8,1.2-2.1,1.2-3.9v-4c0-1.7-0.4-3-1.2-3.9c-0.8-0.8-1.9-1.3-3.1-1.3
			c-1.7,0-3,0.7-3.7,2C143.7,208.6,143.4,210.3,143.4,212.4z"/>
		<path style="fill:#262C36;" d="M159.6,221.5c-0.5,0-0.8-0.3-0.8-0.8v-16.5c0-0.5,0.3-0.8,0.8-0.8h1.4c0.5,0,0.8,0.3,0.8,0.8v2.1
			c0.6-1,1.2-1.8,2-2.3c0.8-0.5,1.7-0.8,2.8-0.8c0.7,0,1.3,0.1,1.6,0.2c0.3,0.1,0.4,0.3,0.3,0.5l-0.4,1.4c-0.1,0.2-0.2,0.3-0.4,0.2
			c-0.4-0.1-0.8-0.1-1.1-0.1c-1.4,0-2.5,0.6-3.3,1.8c-0.9,1.2-1.3,2.9-1.3,5v8.6c0,0.5-0.3,0.8-0.8,0.8H159.6z"/>
		<path style="fill:#262C36;" d="M169.6,215.2v-11c0-0.5,0.3-0.8,0.8-0.8h1.5c0.5,0,0.8,0.3,0.8,0.8v10.2c0,2.3,0.4,3.7,1.1,4.3
			c0.7,0.6,1.7,0.9,2.8,0.9c1.5,0,2.6-0.4,3.4-1.3c0.8-0.9,1.2-2.4,1.2-4.6v-9.5c0-0.5,0.3-0.8,0.8-0.8h1.5c0.5,0,0.8,0.3,0.8,0.8
			v16.5c0,0.5-0.3,0.8-0.8,0.8h-1.4c-0.5,0-0.8-0.3-0.8-0.8v-1.4c-0.8,0.8-1.6,1.4-2.4,1.8c-0.9,0.4-1.9,0.6-3.2,0.6
			c-2,0-3.5-0.6-4.4-1.8S169.6,217.2,169.6,215.2z"/>
		<path style="fill:#262C36;" d="M188,228.4c-0.5,0-0.7-0.3-0.7-0.8v-23.4c0-0.5,0.3-0.8,0.8-0.8h1.4c0.4,0,0.6,0.3,0.6,0.8v1.4
			c0.6-0.8,1.4-1.4,2.2-1.8c0.8-0.4,1.9-0.7,3.2-0.7c2.3,0,4.1,0.9,5.3,2.8c1.2,1.9,1.8,4.1,1.8,6.5c0,2.5-0.6,4.6-1.8,6.5
			c-1.2,1.9-3,2.8-5.3,2.8c-1.3,0-2.4-0.2-3.2-0.7c-0.8-0.4-1.5-1-2.2-1.8h0c0,0.3,0,0.7,0,1.1v7.2c0,0.5-0.2,0.8-0.7,0.8H188z
			 M190.2,214.4c0,1.7,0.4,3,1.3,3.9c0.8,0.8,1.9,1.3,3.2,1.3c1.8,0,3-0.7,3.8-2c0.7-1.3,1.1-3,1.1-5.1s-0.4-3.8-1.1-5.1
			c-0.7-1.3-2-2-3.8-2c-1.3,0-2.3,0.4-3.2,1.3c-0.8,0.8-1.3,2.1-1.3,3.9V214.4z"/>
		<path style="fill:#262C36;" d="M205.7,228.4c-0.5,0-0.7-0.3-0.7-0.8v-23.4c0-0.5,0.3-0.8,0.8-0.8h1.4c0.4,0,0.6,0.3,0.6,0.8v1.4
			c0.6-0.8,1.4-1.4,2.2-1.8c0.8-0.4,1.9-0.7,3.2-0.7c2.3,0,4.1,0.9,5.3,2.8c1.2,1.9,1.8,4.1,1.8,6.5c0,2.5-0.6,4.6-1.8,6.5
			c-1.2,1.9-3,2.8-5.3,2.8c-1.3,0-2.4-0.2-3.2-0.7c-0.8-0.4-1.5-1-2.2-1.8h0c0,0.3,0,0.7,0,1.1v7.2c0,0.5-0.2,0.8-0.7,0.8H205.7z
			 M207.8,214.4c0,1.7,0.4,3,1.3,3.9c0.8,0.8,1.9,1.3,3.2,1.3c1.8,0,3-0.7,3.8-2c0.7-1.3,1.1-3,1.1-5.1s-0.4-3.8-1.1-5.1
			c-0.7-1.3-2-2-3.8-2c-1.3,0-2.3,0.4-3.2,1.3c-0.8,0.8-1.3,2.1-1.3,3.9V214.4z"/>
		<path style="fill:#262C36;" d="M221.7,212.4c0-2.8,0.7-5.1,2.1-6.8c1.4-1.7,3.5-2.5,6.1-2.5c2.2,0,4,0.8,5.5,2.3
			c1.5,1.5,2.2,4,2.2,7.4c0,0.5-0.2,0.8-0.7,0.8h-12.1c0.2,2.2,0.8,3.8,1.8,4.6c1,0.9,2.1,1.3,3.4,1.3c1.3,0,2.4-0.2,3.1-0.7
			c0.7-0.4,1.2-0.9,1.6-1.3c0.4-0.5,0.7-0.6,1.1-0.3l1,0.9c0.3,0.2,0.3,0.5,0,0.9c-0.2,0.3-0.8,0.9-1.9,1.6c-1,0.7-2.6,1.1-4.9,1.1
			c-2.9,0-5-0.8-6.4-2.5C222.3,217.5,221.7,215.3,221.7,212.4z M224.8,211.3h9.7c0-1.6-0.5-3-1.2-4.2c-0.8-1.2-1.9-1.8-3.4-1.8
			c-1.3,0-2.5,0.4-3.4,1.3C225.5,207.5,225,209.1,224.8,211.3z"/>
		<path style="fill:#262C36;" d="M249.2,199.7c-0.7,0-1-0.3-1-0.8v-1.4c0-0.5,0.3-0.8,1-0.8H268c0.7,0,1,0.3,1,0.8v1.4
			c0,0.5-0.3,0.8-1,0.8h-7.7v20.8c0,0.6-0.3,0.9-0.9,0.9h-1.6c-0.6,0-0.9-0.3-0.9-0.9v-20.8H249.2z"/>
		<path style="fill:#262C36;" d="M270.6,221.5c-0.5,0-0.8-0.3-0.8-0.8v-23.9c0-0.5,0.3-0.8,0.8-0.8h1.5c0.5,0,0.8,0.3,0.8,0.8v7.7
			c0,0.3,0,0.7,0,1h0c0.7-0.8,1.6-1.4,2.4-1.8c0.9-0.4,1.9-0.6,3.2-0.6c2.1,0,3.6,0.6,4.5,1.8c0.9,1.2,1.4,2.8,1.4,4.8v11
			c0,0.5-0.3,0.8-0.8,0.8h-1.5c-0.5,0-0.8-0.3-0.8-0.8v-10.2c0-2.3-0.4-3.7-1.1-4.3c-0.7-0.6-1.7-0.9-2.8-0.9
			c-1.5,0-2.6,0.4-3.4,1.3s-1.2,2.4-1.2,4.6v9.5c0,0.5-0.3,0.8-0.8,0.8H270.6z"/>
		<path style="fill:#262C36;" d="M287.6,215.2v-11c0-0.5,0.3-0.8,0.8-0.8h1.5c0.5,0,0.8,0.3,0.8,0.8v10.2c0,2.3,0.4,3.7,1.1,4.3
			s1.7,0.9,2.8,0.9c1.5,0,2.6-0.4,3.4-1.3c0.8-0.9,1.2-2.4,1.2-4.6v-9.5c0-0.5,0.3-0.8,0.8-0.8h1.5c0.5,0,0.8,0.3,0.8,0.8v16.5
			c0,0.5-0.3,0.8-0.8,0.8h-1.4c-0.5,0-0.8-0.3-0.8-0.8v-1.4c-0.8,0.8-1.6,1.4-2.4,1.8c-0.9,0.4-1.9,0.6-3.2,0.6
			c-2,0-3.5-0.6-4.4-1.8C288.1,218.8,287.6,217.2,287.6,215.2z"/>
		<path style="fill:#262C36;" d="M306.1,221.5c-0.5,0-0.8-0.3-0.8-0.8v-16.5c0-0.5,0.3-0.8,0.8-0.8h1.4c0.5,0,0.8,0.3,0.8,0.8v2.1
			c0.6-1,1.2-1.8,2-2.3c0.8-0.5,1.7-0.8,2.8-0.8c0.7,0,1.3,0.1,1.6,0.2c0.3,0.1,0.4,0.3,0.3,0.5l-0.4,1.4c-0.1,0.2-0.2,0.3-0.4,0.2
			c-0.4-0.1-0.8-0.1-1.1-0.1c-1.4,0-2.5,0.6-3.3,1.8c-0.9,1.2-1.3,2.9-1.3,5v8.6c0,0.5-0.3,0.8-0.8,0.8H306.1z"/>
		<path style="fill:#262C36;" d="M315.1,212.4c0-2.5,0.6-4.6,1.8-6.5c1.2-1.9,2.9-2.8,5.2-2.8c1.3,0,2.4,0.2,3.2,0.7
			c0.8,0.4,1.5,1,2.1,1.8v-1.4c0-0.5,0.2-0.8,0.7-0.8h1.5c0.6,0,0.8,0.3,0.8,0.8v17.5c0,2.2-0.5,3.9-1.5,5.2c-1,1.2-3,1.9-6,1.9
			c-2,0-3.5-0.2-4.5-0.7c-1-0.5-1.7-0.9-2.1-1.4c-0.3-0.4-0.3-0.7-0.1-1l0.9-0.9c0.3-0.3,0.6-0.2,1.1,0.2c0.6,0.6,1.2,0.9,1.8,1.2
			c0.6,0.2,1.5,0.4,2.9,0.4c1.6,0,2.7-0.3,3.4-1c0.7-0.7,1.1-2,1.1-4.1v-1c0-0.4,0-0.7,0-1.1h0c-0.6,0.8-1.3,1.4-2.1,1.9
			c-0.8,0.5-1.9,0.7-3.2,0.7c-2.3,0-4-0.9-5.2-2.8C315.7,217.1,315.1,214.9,315.1,212.4z M318.4,212.4c0,2.1,0.4,3.8,1.1,5.1
			c0.7,1.3,2,2,3.7,2c1.2,0,2.3-0.4,3.1-1.3c0.8-0.8,1.2-2.1,1.2-3.9v-4c0-1.7-0.4-3-1.2-3.9s-1.9-1.3-3.1-1.3c-1.7,0-3,0.7-3.7,2
			C318.7,208.6,318.4,210.3,318.4,212.4z"/>
		<path style="fill:#262C36;" d="M332.8,216.6c0-2,1-3.5,2.9-4.5s4.8-1.5,8.6-1.7v-1.2c0-1.1-0.2-2-0.7-2.8s-1.5-1.2-2.9-1.2
			c-1.1,0-2.1,0.2-2.8,0.5s-1.5,0.9-2.2,1.6c-0.3,0.3-0.6,0.4-0.9,0.1l-0.9-1c-0.3-0.3-0.2-0.6,0.3-1c0.9-0.9,2-1.5,3.3-1.8
			c1.3-0.3,2.3-0.5,3.2-0.5c2.4,0,4.1,0.6,5.1,1.9c1,1.2,1.5,2.9,1.5,5.1v10.7c0,0.5-0.3,0.8-0.8,0.8h-1.6c-0.5,0-0.7-0.3-0.7-0.8
			v-0.8c-0.9,0.7-1.8,1.2-2.7,1.5c-0.9,0.3-1.8,0.4-2.9,0.4c-1.9,0-3.3-0.5-4.4-1.4C333.3,219.5,332.8,218.3,332.8,216.6z
			 M335.9,216.5c0,1.1,0.3,1.9,0.8,2.3s1.4,0.6,2.5,0.6c0.9,0,1.7-0.1,2.5-0.3c0.8-0.2,1.6-0.6,2.4-1.4v-5.1
			c-3.9,0.3-6.3,0.8-7.1,1.5C336.4,215,335.9,215.8,335.9,216.5z"/>
		<path style="fill:#262C36;" d="M350.5,215.2v-11c0-0.5,0.3-0.8,0.8-0.8h1.5c0.5,0,0.8,0.3,0.8,0.8v10.2c0,2.3,0.4,3.7,1.1,4.3
			s1.7,0.9,2.8,0.9c1.5,0,2.6-0.4,3.4-1.3c0.8-0.9,1.2-2.4,1.2-4.6v-9.5c0-0.5,0.3-0.8,0.8-0.8h1.5c0.5,0,0.8,0.3,0.8,0.8v16.5
			c0,0.5-0.3,0.8-0.8,0.8h-1.4c-0.5,0-0.8-0.3-0.8-0.8v-1.4c-0.8,0.8-1.6,1.4-2.4,1.8c-0.9,0.4-1.9,0.6-3.2,0.6
			c-2,0-3.5-0.6-4.4-1.8C351,218.8,350.5,217.2,350.5,215.2z"/>
	</g>
</g>
</svg>
