<?xml version="1.0" encoding="utf-8"?>
<!-- Generator: Adobe Illustrator 26.3.1, SVG Export Plug-In . SVG Version: 6.00 Build 0)  -->
<svg version="1.1" xmlns="http://www.w3.org/2000/svg" xmlns:xlink="http://www.w3.org/1999/xlink" x="0px" y="0px"
	 viewBox="0 0 339.94 507.89" style="enable-background:new 0 0 339.94 507.89;" xml:space="preserve">
<style type="text/css">
	.st0{display:none;}
	.st1{display:inline;}
	.st2{fill:#0091CF;}
</style>
<g id="Ebene_1">
	<g class="st0">
		<rect x="425.23" y="207.6" class="st1" width="7.11" height="7.11"/>
		<rect x="462.45" y="-86.74" class="st1" width="16.02" height="463.38"/>
		<polygon class="st1" points="435.49,101.32 432.65,91.76 414.96,135.38 417.81,144.95 		"/>
	</g>
	<g>
		<g>
			<path class="st2" d="M29.38,409.04v5.46h-2.45v-13.22h5.6c2.83,0,4.34,1.55,4.34,3.61c0,1.74-0.97,2.73-2.04,3.11
				c0.8,0.25,1.78,0.97,1.78,3.32v0.61c0,0.9,0,1.97,0.19,2.56h-2.37c-0.23-0.57-0.25-1.59-0.25-2.92v-0.23
				c0-1.59-0.42-2.31-2.64-2.31H29.38z M29.38,407.03h2.56c1.72,0,2.41-0.65,2.41-1.89c0-1.18-0.76-1.85-2.31-1.85h-2.66V407.03z"/>
			<path class="st2" d="M48.37,408.64h-6.4v3.82h7.05l-0.31,2.04h-9.17v-13.22h9.11v2.06h-6.69v3.25h6.4V408.64z"/>
			<path class="st2" d="M62.56,414.5h-1.83c-0.1-0.36-0.17-0.86-0.21-1.47c-0.67,0.97-1.91,1.68-3.94,1.68
				c-3.82,0-5.92-2.9-5.92-6.67c0-3.96,2.25-6.95,6.36-6.95c3.29,0,5.25,1.83,5.6,4.13h-2.46c-0.34-1.09-1.17-2.14-3.17-2.14
				c-2.83,0-3.76,2.33-3.76,4.85c0,2.45,1.01,4.78,3.74,4.78c2.62,0,3.17-1.8,3.17-3.32v-0.13h-3.17v-2.04h5.6V414.5z"/>
			<path class="st2" d="M68,401.28v13.22h-2.48v-13.22H68z"/>
			<path class="st2" d="M83.21,407.83c0,3.67-2.16,6.86-6.4,6.86c-4.07,0-6.23-3.02-6.23-6.8c0-3.82,2.33-6.8,6.4-6.8
				C80.8,401.09,83.21,403.84,83.21,407.83z M73.14,407.83c0,2.67,1.24,4.81,3.76,4.81c2.71,0,3.73-2.25,3.73-4.78
				c0-2.62-1.15-4.74-3.76-4.74C74.27,403.13,73.14,405.18,73.14,407.83z"/>
			<path class="st2" d="M85.77,414.5v-13.22h3.13c1.74,3.02,5.16,8.79,5.81,10.22h0.02c-0.13-1.49-0.13-3.71-0.13-5.87v-4.36h2.27
				v13.22h-2.94c-1.55-2.67-5.23-9.15-5.96-10.66h-0.02c0.1,1.28,0.11,3.82,0.11,6.21v4.45H85.77z"/>
			<path class="st2" d="M102.36,411.14l-1.17,3.36h-2.45l4.57-13.22h3.09l4.76,13.22h-2.62l-1.2-3.36H102.36z M106.78,409.08
				c-1.03-3.02-1.66-4.81-1.99-5.94h-0.02c-0.32,1.24-1.01,3.36-1.85,5.94H106.78z"/>
			<path class="st2" d="M112.98,401.28h2.48v11.18h6.69l-0.29,2.04h-8.88V401.28z"/>
			<path class="st2" d="M125.7,414.5l-4.7-13.22h2.66l2.08,6.29c0.63,1.87,1.17,3.57,1.45,4.87h0.04c0.29-1.18,0.88-2.94,1.53-4.83
				l2.18-6.32h2.54l-4.85,13.22H125.7z"/>
			<path class="st2" d="M144,408.64h-6.4v3.82h7.05l-0.31,2.04h-9.17v-13.22h9.11v2.06h-6.69v3.25h6.4V408.64z"/>
			<path class="st2" d="M149.29,409.04v5.46h-2.45v-13.22h5.6c2.83,0,4.34,1.55,4.34,3.61c0,1.74-0.97,2.73-2.04,3.11
				c0.8,0.25,1.78,0.97,1.78,3.32v0.61c0,0.9,0,1.97,0.19,2.56h-2.37c-0.23-0.57-0.25-1.59-0.25-2.92v-0.23
				c0-1.59-0.42-2.31-2.64-2.31H149.29z M149.29,407.03h2.56c1.72,0,2.41-0.65,2.41-1.89c0-1.18-0.76-1.85-2.31-1.85h-2.66V407.03z"
				/>
			<path class="st2" d="M159.45,401.28h5.54c3.06,0,4.3,1.6,4.3,3.36c0,1.51-0.82,2.48-1.76,2.87c0.9,0.33,2.16,1.26,2.16,3.06
				c0,2.35-1.83,3.94-4.53,3.94h-5.71V401.28z M164.67,406.59c1.55,0,2.16-0.65,2.16-1.7s-0.76-1.66-2.02-1.66h-2.9v3.36H164.67z
				 M161.9,412.55h2.81c1.59,0,2.45-0.69,2.45-2.04c0-1.18-0.78-1.97-2.58-1.97h-2.67V412.55z"/>
			<path class="st2" d="M174.49,411.14l-1.17,3.36h-2.45l4.57-13.22h3.09l4.76,13.22h-2.62l-1.2-3.36H174.49z M178.9,409.08
				c-1.03-3.02-1.66-4.81-1.99-5.94h-0.02c-0.33,1.24-1.01,3.36-1.85,5.94H178.9z"/>
			<path class="st2" d="M185.1,414.5v-13.22h3.13c1.74,3.02,5.16,8.79,5.81,10.22h0.02c-0.13-1.49-0.13-3.71-0.13-5.87v-4.36h2.27
				v13.22h-2.94c-1.55-2.67-5.23-9.15-5.96-10.66h-0.02c0.1,1.28,0.11,3.82,0.11,6.21v4.45H185.1z"/>
			<path class="st2" d="M199.51,401.28h5.06c3.8,0,6.32,2.54,6.32,6.46c0,3.88-2.45,6.76-6.42,6.76h-4.97V401.28z M201.99,412.48
				h2.37c2.73,0,3.97-2.01,3.97-4.72c0-2.31-1.17-4.45-3.97-4.45h-2.37V412.48z"/>
		</g>
		<g>
			<path class="st2" d="M26.94,427.97h8.98v2.06h-6.55v3.59h6.13v2.06h-6.13v5.5h-2.43V427.97z"/>
			<path class="st2" d="M40.52,435.73v5.46h-2.45v-13.22h5.6c2.83,0,4.34,1.55,4.34,3.61c0,1.74-0.97,2.73-2.04,3.11
				c0.8,0.25,1.78,0.97,1.78,3.32v0.61c0,0.9,0,1.97,0.19,2.56h-2.37c-0.23-0.57-0.25-1.59-0.25-2.92v-0.23
				c0-1.59-0.42-2.31-2.64-2.31H40.52z M40.52,433.72h2.56c1.72,0,2.41-0.65,2.41-1.89c0-1.18-0.76-1.85-2.31-1.85h-2.66V433.72z"/>
			<path class="st2" d="M53.16,427.97v13.22h-2.48v-13.22H53.16z"/>
			<path class="st2" d="M67.37,437.24c-0.55,2.39-2.35,4.13-5.54,4.13c-4.11,0-6.09-2.96-6.09-6.72c0-3.61,2.02-6.86,6.21-6.86
				c3.36,0,5.06,1.97,5.43,4.18h-2.48c-0.34-1.17-1.15-2.2-3.04-2.2c-2.54,0-3.55,2.29-3.55,4.79c0,2.35,0.92,4.83,3.63,4.83
				c1.93,0,2.62-1.22,2.96-2.16H67.37z"/>
			<path class="st2" d="M69.7,427.97h2.46v6.11c0.9-1.03,3.84-4.13,5.65-6.11h3l-5.44,5.52l5.65,7.7h-2.98l-4.39-6.09l-1.49,1.41
				v4.68H69.7V427.97z"/>
			<path class="st2" d="M85.71,430.04h-4.09v-2.06h10.66v2.06h-4.09v11.16h-2.48V430.04z"/>
			<path class="st2" d="M94.9,437.83l-1.17,3.36h-2.45l4.57-13.22h3.09l4.76,13.22h-2.62l-1.2-3.36H94.9z M99.31,435.77
				c-1.03-3.02-1.66-4.81-1.99-5.94H97.3c-0.32,1.24-1.01,3.36-1.85,5.94H99.31z"/>
			<path class="st2" d="M105.52,427.97H108v11.18h6.69l-0.29,2.04h-8.88V427.97z"/>
		</g>
		<polygon class="st2" points="19.79,376.64 3.77,376.64 3.77,507.84 3.91,507.84 19.79,502.47 		"/>
		<polygon class="st2" points="0,0 4.19,27.97 170.55,206.24 160.32,171.79 		"/>
		<polygon class="st2" points="3.77,376.64 3.77,394.12 75.25,394.12 72.63,376.64 		"/>
		<polygon class="st2" points="339.94,376.64 204.54,376.64 209.74,394.12 339.94,394.12 		"/>
		<polygon class="st2" points="19.3,20.76 0.01,0.08 59.05,394.12 75.25,394.12 		"/>
		<polygon class="st2" points="160.4,171.96 135.88,145.69 209.71,394.12 226.42,394.12 		"/>
		<polygon class="st2" points="3.77,490.98 3.77,507.89 339.94,394.15 339.94,377.24 		"/>
		<g>
			<path class="st2" d="M155.86,372.22c0,1.47,0.75,2.75,2.22,2.75c1.26,0,1.66-0.57,1.93-1.2h2.39c-0.36,1.22-1.43,3.09-4.39,3.09
				c-3.17,0-4.53-2.45-4.53-5.01c0-3.04,1.55-5.27,4.64-5.27c3.3,0,4.41,2.46,4.41,4.79c0,0.33,0,0.55-0.04,0.84H155.86z
				 M160.14,370.71c-0.02-1.32-0.59-2.39-2.04-2.39c-1.45,0-2.04,0.99-2.18,2.39H160.14z"/>
			<path class="st2" d="M176,372.68c-0.55,2.39-2.35,4.13-5.54,4.13c-4.11,0-6.09-2.96-6.09-6.72c0-3.61,2.03-6.86,6.21-6.86
				c3.36,0,5.06,1.97,5.43,4.18h-2.48c-0.34-1.17-1.15-2.2-3.04-2.2c-2.54,0-3.55,2.29-3.55,4.79c0,2.35,0.92,4.83,3.63,4.83
				c1.93,0,2.62-1.22,2.96-2.16H176z"/>
			<path class="st2" d="M180.08,372.83c0.33,1.41,1.32,2.08,2.98,2.08c1.7,0,2.41-0.73,2.41-1.8c0-1.15-0.63-1.72-3.04-2.27
				c-3.42-0.82-4.37-2.04-4.37-3.86c0-2.18,1.62-3.76,4.7-3.76c3.38,0,4.74,1.87,4.93,3.73h-2.5c-0.17-0.94-0.73-1.83-2.5-1.83
				c-1.32,0-2.08,0.55-2.08,1.6c0,1.03,0.63,1.45,2.83,1.97c3.8,0.9,4.58,2.35,4.58,4.15c0,2.31-1.74,3.97-5.14,3.97
				c-3.34,0-4.99-1.7-5.29-3.97H180.08z"/>
		</g>
		<circle class="st2" cx="222.49" cy="408.12" r="7"/>
		<g>
			<rect x="93.27" y="352.49" class="st2" width="34.59" height="3.56"/>
			<g>
				<rect x="78.62" y="373.08" class="st2" width="19.98" height="3.56"/>
				<rect x="112.31" y="373.08" class="st2" width="31.41" height="3.56"/>
			</g>
			<g>
				<polygon class="st2" points="113.65,301.59 113.67,301.52 109.91,301.52 103.23,320.92 84.06,376.64 87.82,376.64 
					105.08,326.47 				"/>
			</g>
			<g>
				<polygon class="st2" points="113.65,301.59 105.08,326.47 121.83,376.64 138.69,376.64 				"/>
			</g>
			<path class="st2" d="M86.54,369.43c0,0-0.77,3.67-5.77,3.65l1.22,1.43l5.06-0.61L86.54,369.43z"/>
			<path class="st2" d="M90.13,369.92c0,0-1.36,3.16,2.98,3.16l-3.18,2.04l-4.23-1.06L90.13,369.92z"/>
		</g>
		<g>
			<polygon class="st2" points="153.69,229.15 148.68,212.29 117.52,289.15 122.53,306.01 			"/>
			<path class="st2" d="M153.69,229.15l-6.34-21.55c0,0,1.19,7.41-13.55,41.4l13.4-16.8L153.69,229.15z"/>
		</g>
		<g>
			<polygon class="st2" points="161.27,253.52 156.26,236.66 125.1,313.52 130.11,330.38 			"/>
			<path class="st2" d="M161.27,253.52l-6.34-21.55c0,0,1.19,7.41-13.55,41.4l13.4-16.8L161.27,253.52z"/>
		</g>
		<g>
			<polygon class="st2" points="169.41,278.35 164.4,261.5 133.24,338.35 138.25,355.21 			"/>
			<path class="st2" d="M169.41,278.35l-6.34-21.55c0,0,1.19,7.41-13.55,41.4l13.4-16.8L169.41,278.35z"/>
		</g>
	</g>
</g>
<g id="Ebene_2" class="st0">
</g>
</svg>
