<?xml version="1.0" standalone="no"?>
<!DOCTYPE svg PUBLIC "-//W3C//DTD SVG 20010904//EN"
 "http://www.w3.org/TR/2001/REC-SVG-20010904/DTD/svg10.dtd">
<svg version="1.0" xmlns="http://www.w3.org/2000/svg"
 width="700.000000pt" height="700.000000pt" viewBox="0 0 700.000000 700.000000"
 preserveAspectRatio="xMidYMid meet">
<metadata>
Created by potrace 1.11, written by Peter Selinger 2001-2013
</metadata>
<g transform="translate(0.000000,700.000000) scale(0.100000,-0.100000)"
fill="#000000" stroke="none">
<path d="M3298 6995 c-1 -1 -41 -5 -88 -9 -100 -7 -225 -22 -295 -36 -52 -10
-88 -17 -141 -26 -18 -3 -90 -21 -160 -40 -71 -19 -136 -36 -144 -38 -23 -6
-261 -92 -295 -106 -16 -8 -32 -14 -35 -15 -98 -33 -430 -211 -575 -308 -265
-178 -465 -356 -716 -633 -210 -232 -452 -626 -585 -952 -62 -151 -146 -411
-169 -520 -2 -9 -8 -37 -14 -62 -11 -49 -13 -63 -35 -195 -34 -204 -40 -302
-40 -570 0 -233 11 -378 39 -545 6 -32 24 -129 29 -155 30 -151 112 -425 177
-587 48 -122 139 -311 196 -406 24 -41 43 -76 43 -78 0 -2 33 -55 73 -117 480
-736 1212 -1264 2054 -1482 72 -19 142 -36 155 -39 13 -2 50 -9 83 -15 33 -6
71 -13 85 -16 14 -3 52 -8 85 -11 33 -3 63 -8 66 -9 15 -10 227 -20 409 -20
188 0 341 8 430 21 144 21 295 48 345 61 33 8 67 16 75 18 109 22 388 117 549
187 121 53 308 148 353 179 14 11 29 19 33 19 13 0 283 185 370 253 177 139
338 292 468 442 33 39 63 72 67 75 3 3 44 55 90 115 332 437 546 914 654 1456
14 70 28 155 32 190 3 35 8 67 10 70 9 16 19 213 19 399 0 187 -7 327 -20 420
-3 19 -7 56 -10 81 -3 25 -7 54 -9 65 -2 10 -11 60 -21 109 -124 666 -462
1306 -947 1794 -73 74 -215 203 -281 256 -21 17 -48 38 -60 49 -29 24 -168
124 -217 156 -381 247 -791 418 -1207 505 -100 20 -248 43 -393 60 -56 7 -526
16 -532 10z"/>
</g>
</svg>
